  0
SECTION
  2
HEADER
  9
$ACADVER
  1
AC1015
  9
$ACADMAINTVER
 70
     6
  9
$DWGCODEPAGE
  3
ANSI_1252
  9
$INSBASE
 10
0.0
 20
0.0
 30
0.0
  9
$EXTMIN
 10
0.0
 20
0.0
 30
0.0
  9
$EXTMAX
 10
420.0
 20
297.0
 30
0.0
  9
$LIMMIN
 10
0.0
 20
0.0
  9
$LIMMAX
 10
420.0
 20
297.0
  9
$ORTHOMODE
 70
     0
  9
$REGENMODE
 70
     1
  9
$FILLMODE
 70
     1
  9
$QTEXTMODE
 70
     0
  9
$MIRRTEXT
 70
     1
  9
$LTSCALE
 40
1.0
  9
$ATTMODE
 70
     1
  9
$TEXTSIZE
 40
3.5
  9
$TRACEWID
 40
1.0
  9
$TEXTSTYLE
  7
Standard
  9
$CLAYER
  8
0
  9
$CELTYPE
  6
ByLayer
  9
$CECOLOR
 62
   256
  9
$CELTSCALE
 40
1.0
  9
$DISPSILH
 70
     0
  9
$DIMSCALE
 40
1.0
  9
$DIMASZ
 40
3.302
  9
$DIMEXO
 40
1.0
  9
$DIMDLI
 40
3.75
  9
$DIMRND
 40
0.0
  9
$DIMDLE
 40
0.0
  9
$DIMEXE
 40
1.0
  9
$DIMTP
 40
0.0
  9
$DIMTM
 40
0.0
  9
$DIMTXT
 40
3.5
  9
$DIMCEN
 40
2.5
  9
$DIMTSZ
 40
0.0
  9
$DIMTOL
 70
     0
  9
$DIMLIM
 70
     0
  9
$DIMTIH
 70
     1
  9
$DIMTOH
 70
     1
  9
$DIMSE1
 70
     0
  9
$DIMSE2
 70
     0
  9
$DIMTAD
 70
     1
  9
$DIMZIN
 70
     1
  9
$DIMBLK
  1

  9
$DIMASO
 70
     1
  9
$DIMSHO
 70
     1
  9
$DIMPOST
  1

  9
$DIMAPOST
  1

  9
$DIMALT
 70
     0
  9
$DIMALTD
 70
     3
  9
$DIMALTF
 40
0.0393700787
  9
$DIMLFAC
 40
0.5
  9
$DIMTOFL
 70
     1
  9
$DIMTVP
 40
0.0
  9
$DIMTIX
 70
     0
  9
$DIMSOXD
 70
     0
  9
$DIMSAH
 70
     0
  9
$DIMBLK1
  1

  9
$DIMBLK2
  1

  9
$DIMSTYLE
  2
ISO-25
  9
$DIMCLRD
 70
     0
  9
$DIMCLRE
 70
     0
  9
$DIMCLRT
 70
     0
  9
$DIMTFAC
 40
1.0
  9
$DIMGAP
 40
1.524
  9
$DIMJUST
 70
     0
  9
$DIMSD1
 70
     0
  9
$DIMSD2
 70
     0
  9
$DIMTOLJ
 70
     0
  9
$DIMTZIN
 70
     1
  9
$DIMALTZ
 70
     0
  9
$DIMALTTZ
 70
     0
  9
$DIMUPT
 70
     0
  9
$DIMDEC
 70
     2
  9
$DIMTDEC
 70
     2
  9
$DIMALTU
 70
     2
  9
$DIMALTTD
 70
     3
  9
$DIMTXSTY
  7
Standard
  9
$DIMAUNIT
 70
     0
  9
$DIMADEC
 70
     2
  9
$DIMALTRND
 40
0.0
  9
$DIMAZIN
 70
     0
  9
$DIMDSEP
 70
    44
  9
$DIMATFIT
 70
     3
  9
$DIMFRAC
 70
     0
  9
$DIMLDRBLK
  1

  9
$DIMLUNIT
 70
     2
  9
$DIMLWD
 70
    -2
  9
$DIMLWE
 70
    -2
  9
$DIMTMOVE
 70
     0
  9
$LUNITS
 70
     2
  9
$LUPREC
 70
     2
  9
$SKETCHINC
 40
1.0
  9
$FILLETRAD
 40
0.0
  9
$AUNITS
 70
     0
  9
$AUPREC
 70
     2
  9
$MENU
  1
.
  9
$ELEVATION
 40
0.0
  9
$PELEVATION
 40
0.0
  9
$THICKNESS
 40
0.0
  9
$LIMCHECK
 70
     0
  9
$CHAMFERA
 40
0.0
  9
$CHAMFERB
 40
0.0
  9
$CHAMFERC
 40
0.0
  9
$CHAMFERD
 40
0.0
  9
$SKPOLY
 70
     0
  9
$TDCREATE
 40
2461170.732335128
  9
$TDUCREATE
 40
2461170.440668461
  9
$TDUPDATE
 40
2461170.732336551
  9
$TDUUPDATE
 40
2461170.440669885
  9
$TDINDWG
 40
0.0000000116
  9
$TDUSRTIMER
 40
0.0000000116
  9
$USRTIMER
 70
     1
  9
$ANGBASE
 50
0.0
  9
$ANGDIR
 70
     0
  9
$PDMODE
 70
     0
  9
$PDSIZE
 40
-1.0
  9
$PLINEWID
 40
0.0
  9
$SPLFRAME
 70
     0
  9
$SPLINETYPE
 70
     6
  9
$SPLINESEGS
 70
     8
  9
$HANDSEED
  5
13B
  9
$SURFTAB1
 70
     6
  9
$SURFTAB2
 70
     6
  9
$SURFTYPE
 70
     6
  9
$SURFU
 70
     6
  9
$SURFV
 70
     6
  9
$UCSBASE
  2

  9
$UCSNAME
  2

  9
$UCSORG
 10
0.0
 20
0.0
 30
0.0
  9
$UCSXDIR
 10
1.0
 20
0.0
 30
0.0
  9
$UCSYDIR
 10
0.0
 20
1.0
 30
0.0
  9
$UCSORTHOREF
  2

  9
$UCSORTHOVIEW
 70
     0
  9
$UCSORGTOP
 10
0.0
 20
0.0
 30
0.0
  9
$UCSORGBOTTOM
 10
0.0
 20
0.0
 30
0.0
  9
$UCSORGLEFT
 10
0.0
 20
0.0
 30
0.0
  9
$UCSORGRIGHT
 10
0.0
 20
0.0
 30
0.0
  9
$UCSORGFRONT
 10
0.0
 20
0.0
 30
0.0
  9
$UCSORGBACK
 10
0.0
 20
0.0
 30
0.0
  9
$PUCSBASE
  2

  9
$PUCSNAME
  2

  9
$PUCSORG
 10
0.0
 20
0.0
 30
0.0
  9
$PUCSXDIR
 10
1.0
 20
0.0
 30
0.0
  9
$PUCSYDIR
 10
0.0
 20
1.0
 30
0.0
  9
$PUCSORTHOREF
  2

  9
$PUCSORTHOVIEW
 70
     0
  9
$PUCSORGTOP
 10
0.0
 20
0.0
 30
0.0
  9
$PUCSORGBOTTOM
 10
0.0
 20
0.0
 30
0.0
  9
$PUCSORGLEFT
 10
0.0
 20
0.0
 30
0.0
  9
$PUCSORGRIGHT
 10
0.0
 20
0.0
 30
0.0
  9
$PUCSORGFRONT
 10
0.0
 20
0.0
 30
0.0
  9
$PUCSORGBACK
 10
0.0
 20
0.0
 30
0.0
  9
$USERI1
 70
     0
  9
$USERI2
 70
     0
  9
$USERI3
 70
     0
  9
$USERI4
 70
     0
  9
$USERI5
 70
     0
  9
$USERR1
 40
0.0
  9
$USERR2
 40
0.0
  9
$USERR3
 40
0.0
  9
$USERR4
 40
0.0
  9
$USERR5
 40
0.0
  9
$WORLDVIEW
 70
     1
  9
$SHADEDGE
 70
     3
  9
$SHADEDIF
 70
    70
  9
$TILEMODE
 70
     1
  9
$MAXACTVP
 70
    64
  9
$PINSBASE
 10
0.0
 20
0.0
 30
0.0
  9
$PLIMCHECK
 70
     0
  9
$PEXTMIN
 10
1.0000000000E+20
 20
1.0000000000E+20
 30
1.0000000000E+20
  9
$PEXTMAX
 10
-1.0000000000E+20
 20
-1.0000000000E+20
 30
-1.0000000000E+20
  9
$PLIMMIN
 10
0.0
 20
0.0
  9
$PLIMMAX
 10
420.0
 20
297.0
  9
$UNITMODE
 70
     0
  9
$VISRETAIN
 70
     1
  9
$PLINEGEN
 70
     0
  9
$PSLTSCALE
 70
     1
  9
$TREEDEPTH
 70
  3020
  9
$CMLSTYLE
  2
Standard
  9
$CMLJUST
 70
     0
  9
$CMLSCALE
 40
20.0
  9
$PROXYGRAPHICS
 70
     1
  9
$MEASUREMENT
 70
     1
  9
$CELWEIGHT
370
    -1
  9
$ENDCAPS
280
     0
  9
$JOINSTYLE
280
     0
  9
$LWDISPLAY
290
     1
  9
$INSUNITS
 70
     4
  9
$HYPERLINKBASE
  1

  9
$STYLESHEET
  1

  9
$XEDIT
290
     1
  9
$CEPSNTYPE
380
     0
  9
$PSTYLEMODE
290
     1
  9
$FINGERPRINTGUID
  2
{7d4f5a95-31ef-49ae-96e3-f27dd20234e5}
  9
$VERSIONGUID
  2
{FAEB1C32-E019-11D5-929B-00C0DF256EC4}
  9
$EXTNAMES
290
     1
  9
$PSVPSCALE
 40
0.0
  9
$OLESTARTUP
290
     0
  0
ENDSEC
  0
SECTION
  2
CLASSES
  0
CLASS
  1
ACDBDICTIONARYWDFLT
  2
AcDbDictionaryWithDefault
  3
ObjectDBX Classes
 90
        0
280
     0
281
     0
  0
CLASS
  1
VISUALSTYLE
  2
AcDbVisualStyle
  3
ObjectDBX Classes
 90
     4095
280
     0
281
     0
  0
CLASS
  1
MATERIAL
  2
AcDbMaterial
  3
ObjectDBX Classes
 90
     1153
280
     0
281
     0
  0
CLASS
  1
SCALE
  2
AcDbScale
  3
ObjectDBX Classes
 90
     1153
280
     0
281
     0
  0
CLASS
  1
TABLESTYLE
  2
AcDbTableStyle
  3
ObjectDBX Classes
 90
     4095
280
     0
281
     0
  0
CLASS
  1
MLEADERSTYLE
  2
AcDbMLeaderStyle
  3
ACDB_MLEADERSTYLE_CLASS
 90
     4095
280
     0
281
     0
  0
CLASS
  1
SUN
  2
AcDbSun
  3
SCENEOE
 90
     1153
280
     0
281
     0
  0
CLASS
  1
ACDBPLACEHOLDER
  2
AcDbPlaceHolder
  3
ObjectDBX Classes
 90
        0
280
     0
281
     0
  0
CLASS
  1
LAYOUT
  2
AcDbLayout
  3
ObjectDBX Classes
 90
        0
280
     0
281
     0
  0
ENDSEC
  0
SECTION
  2
TABLES
  0
TABLE
  2
VPORT
  5
8
330
0
100
AcDbSymbolTable
 70
     1
  0
VPORT
  5
29
330
8
100
AcDbSymbolTableRecord
100
AcDbViewportTableRecord
  2
*Active
 70
     0
 10
0.0
 20
0.0
 11
1.0
 21
1.0
 12
210.0
 22
148.5
 13
0.0
 23
0.0
 14
10.0
 24
10.0
 15
10.0
 25
10.0
 16
0.0
 26
0.0
 36
1.0
 17
0.0
 27
0.0
 37
0.0
 40
297.0
 41
1.4141414141
 42
50.0
 43
0.0
 44
0.0
 50
0.0
 51
0.0
 71
     0
 72
  2000
 73
     1
 74
     3
 75
     0
 76
     0
 77
     0
 78
     0
281
     0
 65
     1
110
0.0
120
0.0
130
0.0
111
1.0
121
0.0
131
0.0
112
0.0
122
1.0
132
0.0
 79
     0
146
0.0
  0
ENDTAB
  0
TABLE
  2
LTYPE
  5
5
330
0
100
AcDbSymbolTable
 70
     6
  0
LTYPE
  5
14
330
5
100
AcDbSymbolTableRecord
100
AcDbLinetypeTableRecord
  2
ByBlock
 70
     0
  3

 72
    65
 73
     0
 40
0.0
  0
LTYPE
  5
15
330
5
100
AcDbSymbolTableRecord
100
AcDbLinetypeTableRecord
  2
ByLayer
 70
     0
  3

 72
    65
 73
     0
 40
0.0
  0
LTYPE
  5
16
330
5
100
AcDbSymbolTableRecord
100
AcDbLinetypeTableRecord
  2
Continuous
 70
     0
  3
Solid line
 72
    65
 73
     0
 40
0.0
  0
LTYPE
  5
5E
330
5
100
AcDbSymbolTableRecord
100
AcDbLinetypeTableRecord
  2
HIDDEN
 70
     0
  3
Hidden __ __ __ __ __ __ __ __ __ __ __ __ __ __
 72
    65
 73
     2
 40
1.905
 49
1.27
 74
     0
 49
-0.635
 74
     0
  0
LTYPE
  5
5F
330
5
100
AcDbSymbolTableRecord
100
AcDbLinetypeTableRecord
  2
PHANTOM
 70
     0
  3
Phantom ______  __  __  ______  __  __  ______
 72
    65
 73
     6
 40
12.7
 49
6.35
 74
     0
 49
-1.27
 74
     0
 49
1.27
 74
     0
 49
-1.27
 74
     0
 49
1.27
 74
     0
 49
-1.27
 74
     0
  0
LTYPE
  5
60
330
5
100
AcDbSymbolTableRecord
100
AcDbLinetypeTableRecord
  2
CENTER
 70
     0
  3
Center ____ _ ____ _ ____ _ ____ _ ____ _ ____
 72
    65
 73
     4
 40
10.16
 49
6.35
 74
     0
 49
-1.27
 74
     0
 49
1.27
 74
     0
 49
-1.27
 74
     0
  0
LTYPE
  5
61
330
5
100
AcDbSymbolTableRecord
100
AcDbLinetypeTableRecord
  2
CENTERX2
 70
     0
  3
Center (2x) ________  __  ________  __  _____
 72
    65
 73
     4
 40
20.32
 49
12.7
 74
     0
 49
-2.54
 74
     0
 49
2.54
 74
     0
 49
-2.54
 74
     0
  0
LTYPE
  5
62
330
5
100
AcDbSymbolTableRecord
100
AcDbLinetypeTableRecord
  2
DOT2
 70
     0
  3
Dot (.5x) ........................................
 72
    65
 73
     2
 40
0.635
 49
0.0
 74
     0
 49
-0.635
 74
     0
  0
ENDTAB
  0
TABLE
  2
LAYER
  5
2
330
0
100
AcDbSymbolTable
 70
     2
  0
LAYER
  5
10
330
2
100
AcDbSymbolTableRecord
100
AcDbLayerTableRecord
  2
0
 70
     0
 62
     7
  6
Continuous
370
    -3
390
F
  0
LAYER
  5
63
330
2
100
AcDbSymbolTableRecord
100
AcDbLayerTableRecord
  2
FORMAT
 70
     0
 62
     7
  6
Continuous
370
    -3
390
F
  0
ENDTAB
  0
TABLE
  2
STYLE
  5
3
330
0
100
AcDbSymbolTable
 70
     1
  0
STYLE
  5
11
330
3
100
AcDbSymbolTableRecord
100
AcDbTextStyleTableRecord
  2
Standard
 70
     0
 40
0.0
 41
1.0
 50
0.0
 71
     0
 42
3.5
  3
txt
  4

  0
ENDTAB
  0
TABLE
  2
VIEW
  5
6
330
0
100
AcDbSymbolTable
 70
     0
  0
ENDTAB
  0
TABLE
  2
UCS
  5
7
330
0
100
AcDbSymbolTable
 70
     0
  0
ENDTAB
  0
TABLE
  2
APPID
  5
9
330
0
100
AcDbSymbolTable
 70
     1
  0
APPID
  5
12
330
9
100
AcDbSymbolTableRecord
100
AcDbRegAppTableRecord
  2
ACAD
 70
     0
  0
ENDTAB
  0
TABLE
  2
DIMSTYLE
  5
A
330
0
100
AcDbSymbolTable
 70
     1
100
AcDbDimStyleTable
  0
DIMSTYLE
105
27
330
A
100
AcDbSymbolTableRecord
100
AcDbDimStyleTableRecord
  2
ISO-25
 70
     0
 41
2.5
 42
0.625
 43
3.75
 44
1.25
 73
     0
 74
     0
 77
     1
 78
     8
140
2.5
141
2.5
143
0.0393700787
147
0.625
171
     3
172
     1
178
     0
271
     2
272
     2
274
     3
278
    44
283
     0
284
     8
340
11
  0
ENDTAB
  0
TABLE
  2
BLOCK_RECORD
  5
1
330
0
100
AcDbSymbolTable
 70
     1
  0
BLOCK_RECORD
  5
1F
330
1
100
AcDbSymbolTableRecord
100
AcDbBlockTableRecord
  2
*Model_Space
340
22
  0
BLOCK_RECORD
  5
1B
330
1
100
AcDbSymbolTableRecord
100
AcDbBlockTableRecord
  2
*Paper_Space
340
1E
  0
BLOCK_RECORD
  5
23
330
1
100
AcDbSymbolTableRecord
100
AcDbBlockTableRecord
  2
*Paper_Space0
340
26
  0
ENDTAB
  0
ENDSEC
  0
SECTION
  2
BLOCKS
  0
BLOCK
  5
20
330
1F
100
AcDbEntity
  8
0
100
AcDbBlockBegin
  2
*Model_Space
 70
     0
 10
0.0
 20
0.0
 30
0.0
  3
*Model_Space
  1

  0
ENDBLK
  5
21
330
1F
100
AcDbEntity
  8
0
100
AcDbBlockEnd
  0
BLOCK
  5
1C
330
1B
100
AcDbEntity
 67
     1
  8
0
100
AcDbBlockBegin
  2
*Paper_Space
 70
     0
 10
0.0
 20
0.0
 30
0.0
  3
*Paper_Space
  1

  0
ENDBLK
  5
1D
330
1B
100
AcDbEntity
 67
     1
  8
0
100
AcDbBlockEnd
  0
BLOCK
  5
24
330
23
100
AcDbEntity
  8
0
100
AcDbBlockBegin
  2
*Paper_Space0
 70
     0
 10
0.0
 20
0.0
 30
0.0
  3
*Paper_Space0
  1

  0
ENDBLK
  5
25
330
23
100
AcDbEntity
  8
0
100
AcDbBlockEnd
  0
ENDSEC
  0
SECTION
  2
ENTITIES
  0
SPLINE
  5
64
330
1F
100
AcDbEntity
  8
0
  6
Continuous
 62
     7
370
    25
100
AcDbSpline
210
0.0
220
0.0
230
1.0
 70
     8
 71
     3
 72
    23
 73
    19
 74
     0
 42
0.00000001
 43
0.00000001
 40
0.0
 40
0.0
 40
0.0
 40
0.0
 40
0.1102102203241523
 40
0.2123654043030144
 40
0.3061165972296825
 40
0.3915306709986664
 40
0.4692572775578233
 40
0.5391041187211626
 40
0.6014207953680206
 40
0.6571668532477278
 40
0.7076266162525818
 40
0.7542643497348929
 40
0.797409210995631
 40
0.8388932658967191
 40
0.8787831909129732
 40
0.9182016064641332
 40
0.958246394275708
 40
1.0
 40
1.0
 40
1.0
 40
1.0
 10
187.9599165241183
 20
213.7402664822846
 30
0.0
 10
187.9608458123927
 20
213.639284818379
 30
0.0
 10
187.9626364691894
 20
213.4447020308714
 30
0.0
 10
187.9727110435533
 20
213.164309530281
 30
0.0
 10
187.994035376172
 20
212.9073397795426
 30
0.0
 10
188.0215970180494
 20
212.673529134576
 30
0.0
 10
188.0555023810168
 20
212.4626442774049
 30
0.0
 10
188.098259592121
 20
212.2749807771848
 30
0.0
 10
188.1493319531524
 20
212.110299685279
 30
0.0
 10
188.2096863736778
 20
211.9678912411407
 30
0.0
 10
188.2769910500316
 20
211.844760337456
 30
0.0
 10
188.3511444892281
 20
211.7395166935179
 30
0.0
 10
188.4313232981605
 20
211.6493187656931
 30
0.0
 10
188.5199053363749
 20
211.5768048115166
 30
0.0
 10
188.6141619328686
 20
211.5179689927101
 30
0.0
 10
188.7162062131198
 20
211.4771851169104
 30
0.0
 10
188.8252232806048
 20
211.452957331171
 30
0.0
 10
188.9002185186346
 20
211.4497183473793
 30
0.0
 10
188.9384994855893
 20
211.4480650233183
 30
0.0
  0
SPLINE
  5
65
330
1F
100
AcDbEntity
  8
0
  6
Continuous
 62
     7
370
    25
100
AcDbSpline
210
0.0
220
0.0
230
1.0
 70
     8
 71
     3
 72
    23
 73
    19
 74
     0
 42
0.00000001
 43
0.00000001
 40
0.0
 40
0.0
 40
0.0
 40
0.0
 40
0.0479275100139143
 40
0.0935650421480504
 40
0.1375402505685682
 40
0.1810072221236138
 40
0.2244570548313567
 40
0.2692046026090217
 40
0.3162432303390407
 40
0.3666747249675186
 40
0.422025618282231
 40
0.4831691754141556
 40
0.5508462690017162
 40
0.6262979781437005
 40
0.7081255145856596
 40
0.7980854653599373
 40
0.8953520655711397
 40
1.0
 40
1.0
 40
1.0
 40
1.0
 10
188.9384994855893
 20
211.4480650233183
 30
0.0
 10
188.9832569607861
 20
211.4497675038383
 30
0.0
 10
189.0706333976596
 20
211.4530911203076
 30
0.0
 10
189.1976298214498
 20
211.4762879526445
 30
0.0
 10
189.3147092014445
 20
211.519369956095
 30
0.0
 10
189.4231294422546
 20
211.5766440789149
 30
0.0
 10
189.5222888223139
 20
211.6502204057367
 30
0.0
 10
189.6109732900025
 20
211.740848713535
 30
0.0
 10
189.6892663225207
 20
211.8485928503952
 30
0.0
 10
189.7596030106188
 20
211.9730765365768
 30
0.0
 10
189.8212253027577
 20
212.1166363120996
 30
0.0
 10
189.8716009550187
 20
212.2813139530013
 30
0.0
 10
189.9162777352431
 20
212.4668508640464
 30
0.0
 10
189.9536484034067
 20
212.6737209741175
 30
0.0
 10
189.9810378285598
 20
212.9030974896064
 30
0.0
 10
189.999583337414
 20
213.1537144448913
 30
0.0
 10
190.0127444949595
 20
213.4260329914013
 30
0.0
 10
190.0140990885297
 20
213.6146109688695
 30
0.0
 10
190.0148011450674
 20
213.7123468542826
 30
0.0
  0
SPLINE
  5
66
330
1F
100
AcDbEntity
  8
0
  6
Continuous
 62
     7
370
    25
100
AcDbSpline
210
0.0
220
0.0
230
1.0
 70
     8
 71
     3
 72
    23
 73
    19
 74
     0
 42
0.00000001
 43
0.00000001
 40
0.0
 40
0.0
 40
0.0
 40
0.0
 40
0.1050621673005674
 40
0.2022877285601331
 40
0.2922459481232032
 40
0.3751589738451016
 40
0.4501080961628129
 40
0.5183757722838227
 40
0.580276948574305
 40
0.6357781453826981
 40
0.6867957364063532
 40
0.7339749741181636
 40
0.7788468206407038
 40
0.8222641179687057
 40
0.8650547880045004
 40
0.9083219549362385
 40
0.9528311725349465
 40
1.0
 40
1.0
 40
1.0
 40
1.0
 10
190.0148011450674
 20
213.7123468542826
 30
0.0
 10
190.0141203192134
 20
213.8110154391382
 30
0.0
 10
190.012809450429
 20
214.0009929012782
 30
0.0
 10
189.9994249166755
 20
214.2751451364843
 30
0.0
 10
189.9814779088287
 20
214.5282239202719
 30
0.0
 10
189.9517542973858
 20
214.7591311447408
 30
0.0
 10
189.9162768060486
 20
214.9685885623373
 30
0.0
 10
189.8718898154587
 20
215.1561602081244
 30
0.0
 10
189.8198408064023
 20
215.3228020696432
 30
0.0
 10
189.7578129450372
 20
215.4685495038003
 30
0.0
 10
189.6884034062413
 20
215.5954654527596
 30
0.0
 10
189.6091316092937
 20
215.7043569026508
 30
0.0
 10
189.5224488947667
 20
215.7979354402062
 30
0.0
 10
189.4254096391172
 20
215.8747274480252
 30
0.0
 10
189.3174749208229
 20
215.9318419613177
 30
0.0
 10
189.2021147477362
 20
215.9743025989377
 30
0.0
 10
189.0773678593399
 20
216.0001294064344
 30
0.0
 10
188.9912060630062
 20
216.0030471296116
 30
0.0
 10
188.9468753739899
 20
216.0045483132489
 30
0.0
  0
SPLINE
  5
67
330
1F
100
AcDbEntity
  8
0
  6
Continuous
 62
     7
370
    25
100
AcDbSpline
210
0.0
220
0.0
230
1.0
 70
     8
 71
     3
 72
    23
 73
    19
 74
     0
 42
0.00000001
 43
0.00000001
 40
0.0
 40
0.0
 40
0.0
 40
0.0
 40
0.0420951145571503
 40
0.082967530280295
 40
0.1227083548031948
 40
0.1631001485232141
 40
0.2049235075616515
 40
0.2491444263227326
 40
0.2964609368155693
 40
0.3468857403636068
 40
0.4026170434292764
 40
0.4649554502422645
 40
0.5349928568830755
 40
0.6119272117862301
 40
0.6970232793630075
 40
0.7899695959880425
 40
0.890936100085669
 40
1.0
 40
1.0
 40
1.0
 40
1.0
 10
188.9468753739899
 20
216.0045483132489
 30
0.0
 10
188.9086117774007
 20
216.0028379120323
 30
0.0
 10
188.8331959924089
 20
215.999466790081
 30
0.0
 10
188.7234969440091
 20
215.9758389728588
 30
0.0
 10
188.6213526331892
 20
215.9339686651218
 30
0.0
 10
188.5252465699043
 20
215.8779293912881
 30
0.0
 10
188.4364812923415
 20
215.8040993193367
 30
0.0
 10
188.3557753711028
 20
215.7132868826838
 30
0.0
 10
188.2799548691228
 20
215.608572085355
 30
0.0
 10
188.212520958192
 20
215.4861257118988
 30
0.0
 10
188.1520250444171
 20
215.345164271508
 30
0.0
 10
188.1013104792074
 20
215.1816548203251
 30
0.0
 10
188.0570889984939
 20
214.9965215969743
 30
0.0
 10
188.0211388944428
 20
214.7885599586172
 30
0.0
 10
187.9937043701709
 20
214.5583558596608
 30
0.0
 10
187.9750923074327
 20
214.3054123473032
 30
0.0
 10
187.9619607920347
 20
214.0303019962532
 30
0.0
 10
187.9606152386635
 20
213.839398318478
 30
0.0
 10
187.9599165241183
 20
213.7402664822846
 30
0.0
  0
LINE
  5
68
330
1F
100
AcDbEntity
  8
0
  6
Continuous
 62
     7
370
    25
100
AcDbLine
 10
163.5930611854
 20
213.5922924539
 30
0.0
 11
163.1477431187
 21
215.3344772412
 31
0.0
  0
LINE
  5
69
330
1F
100
AcDbEntity
  8
0
  6
Continuous
 62
     7
370
    25
100
AcDbLine
 10
163.1477431187
 20
215.3344772412
 30
0.0
 11
162.7359286057
 21
213.5922924539
 31
0.0
  0
LINE
  5
6A
330
1F
100
AcDbEntity
  8
0
  6
Continuous
 62
     7
370
    25
100
AcDbLine
 10
162.7359286057
 20
213.5922924539
 30
0.0
 11
163.5930611854
 21
213.5922924539
 31
0.0
  0
SPLINE
  5
6B
330
1F
100
AcDbEntity
  8
0
  6
Continuous
 62
     7
370
    25
100
AcDbSpline
210
0.0
220
0.0
230
1.0
 70
     8
 71
     3
 72
    23
 73
    19
 74
     0
 42
0.00000001
 43
0.00000001
 40
0.0
 40
0.0
 40
0.0
 40
0.0
 40
0.1102102203241523
 40
0.2123654043030143
 40
0.3061165972296821
 40
0.391530670998666
 40
0.4692572775578229
 40
0.5391041187211633
 40
0.6014207953680205
 40
0.6571668532477276
 40
0.7076266162525817
 40
0.7542643497348912
 40
0.7974092109956328
 40
0.838893265896719
 40
0.8787831909129731
 40
0.9182016064641307
 40
0.958246394275708
 40
1.0
 40
1.0
 40
1.0
 40
1.0
 10
140.5188846230766
 20
213.7402664822846
 30
0.0
 10
140.519813911351
 20
213.639284818379
 30
0.0
 10
140.5216045681478
 20
213.4447020308714
 30
0.0
 10
140.5316791425116
 20
213.164309530281
 30
0.0
 10
140.5530034751303
 20
212.9073397795426
 30
0.0
 10
140.5805651170077
 20
212.673529134576
 30
0.0
 10
140.614470479975
 20
212.4626442774049
 30
0.0
 10
140.6572276910793
 20
212.2749807771848
 30
0.0
 10
140.7083000521107
 20
212.110299685279
 30
0.0
 10
140.7686544726361
 20
211.9678912411407
 30
0.0
 10
140.8359591489899
 20
211.844760337456
 30
0.0
 10
140.9101125881864
 20
211.7395166935179
 30
0.0
 10
140.9902913971188
 20
211.6493187656931
 30
0.0
 10
141.0788734353332
 20
211.5768048115166
 30
0.0
 10
141.1731300318269
 20
211.5179689927101
 30
0.0
 10
141.2751743120781
 20
211.4771851169104
 30
0.0
 10
141.3841913795631
 20
211.452957331171
 30
0.0
 10
141.4591866175929
 20
211.4497183473793
 30
0.0
 10
141.4974675845476
 20
211.4480650233183
 30
0.0
  0
SPLINE
  5
6C
330
1F
100
AcDbEntity
  8
0
  6
Continuous
 62
     7
370
    25
100
AcDbSpline
210
0.0
220
0.0
230
1.0
 70
     8
 71
     3
 72
    23
 73
    19
 74
     0
 42
0.00000001
 43
0.00000001
 40
0.0
 40
0.0
 40
0.0
 40
0.0
 40
0.0479275100139168
 40
0.0935650421480504
 40
0.1375402505685682
 40
0.181007222123616
 40
0.2244570548313569
 40
0.269204602609022
 40
0.3162432303390394
 40
0.3666747249675198
 40
0.4220256182822312
 40
0.4831691754141558
 40
0.5508462690017164
 40
0.6262979781437007
 40
0.7081255145856599
 40
0.7980854653599374
 40
0.8953520655711397
 40
1.0
 40
1.0
 40
1.0
 40
1.0
 10
141.4974675845476
 20
211.4480650233183
 30
0.0
 10
141.5422250597445
 20
211.4497675038383
 30
0.0
 10
141.6296014966179
 20
211.4530911203076
 30
0.0
 10
141.7565979204081
 20
211.4762879526445
 30
0.0
 10
141.8736773004029
 20
211.519369956095
 30
0.0
 10
141.982097541213
 20
211.5766440789149
 30
0.0
 10
142.0812569212722
 20
211.6502204057367
 30
0.0
 10
142.1699413889609
 20
211.740848713535
 30
0.0
 10
142.248234421479
 20
211.8485928503952
 30
0.0
 10
142.3185711095771
 20
211.9730765365767
 30
0.0
 10
142.380193401716
 20
212.1166363120996
 30
0.0
 10
142.430569053977
 20
212.2813139530013
 30
0.0
 10
142.4752458342014
 20
212.4668508640464
 30
0.0
 10
142.512616502365
 20
212.6737209741175
 30
0.0
 10
142.5400059275182
 20
212.9030974896064
 30
0.0
 10
142.5585514363723
 20
213.1537144448913
 30
0.0
 10
142.5717125939179
 20
213.4260329914013
 30
0.0
 10
142.573067187488
 20
213.6146109688695
 30
0.0
 10
142.5737692440257
 20
213.7123468542826
 30
0.0
  0
SPLINE
  5
6D
330
1F
100
AcDbEntity
  8
0
  6
Continuous
 62
     7
370
    25
100
AcDbSpline
210
0.0
220
0.0
230
1.0
 70
     8
 71
     3
 72
    23
 73
    19
 74
     0
 42
0.00000001
 43
0.00000001
 40
0.0
 40
0.0
 40
0.0
 40
0.0
 40
0.1050621673005674
 40
0.2022877285601331
 40
0.2922459481232029
 40
0.3751589738451012
 40
0.4501080961628127
 40
0.5183757722838224
 40
0.5802769485743047
 40
0.6357781453826967
 40
0.6867957364063543
 40
0.7339749741181631
 40
0.7788468206407033
 40
0.8222641179687034
 40
0.8650547880045002
 40
0.9083219549362384
 40
0.9528311725349441
 40
1.0
 40
1.0
 40
1.0
 40
1.0
 10
142.5737692440257
 20
213.7123468542826
 30
0.0
 10
142.5730884181717
 20
213.8110154391382
 30
0.0
 10
142.5717775493873
 20
214.0009929012782
 30
0.0
 10
142.5583930156338
 20
214.2751451364843
 30
0.0
 10
142.5404460077871
 20
214.5282239202719
 30
0.0
 10
142.5107223963441
 20
214.7591311447408
 30
0.0
 10
142.4752449050069
 20
214.9685885623373
 30
0.0
 10
142.430857914417
 20
215.1561602081244
 30
0.0
 10
142.3788089053606
 20
215.3228020696432
 30
0.0
 10
142.3167810439955
 20
215.4685495038003
 30
0.0
 10
142.2473715051997
 20
215.5954654527596
 30
0.0
 10
142.168099708252
 20
215.7043569026509
 30
0.0
 10
142.081416993725
 20
215.7979354402062
 30
0.0
 10
141.9843777380756
 20
215.8747274480252
 30
0.0
 10
141.8764430197812
 20
215.9318419613177
 30
0.0
 10
141.7610828466945
 20
215.9743025989377
 30
0.0
 10
141.6363359582983
 20
216.0001294064344
 30
0.0
 10
141.5501741619645
 20
216.0030471296116
 30
0.0
 10
141.5058434729482
 20
216.0045483132489
 30
0.0
  0
SPLINE
  5
6E
330
1F
100
AcDbEntity
  8
0
  6
Continuous
 62
     7
370
    25
100
AcDbSpline
210
0.0
220
0.0
230
1.0
 70
     8
 71
     3
 72
    23
 73
    19
 74
     0
 42
0.00000001
 43
0.00000001
 40
0.0
 40
0.0
 40
0.0
 40
0.0
 40
0.0420951145571503
 40
0.0829675302802975
 40
0.1227083548031949
 40
0.1631001485232142
 40
0.2049235075616496
 40
0.2491444263227341
 40
0.2964609368155693
 40
0.3468857403636068
 40
0.4026170434292763
 40
0.4649554502422637
 40
0.534992856883076
 40
0.6119272117862304
 40
0.6970232793630078
 40
0.7899695959880426
 40
0.8909361000856691
 40
1.0
 40
1.0
 40
1.0
 40
1.0
 10
141.5058434729482
 20
216.0045483132489
 30
0.0
 10
141.467579876359
 20
216.0028379120323
 30
0.0
 10
141.3921640913672
 20
215.999466790081
 30
0.0
 10
141.2824650429674
 20
215.9758389728588
 30
0.0
 10
141.1803207321475
 20
215.9339686651218
 30
0.0
 10
141.0842146688626
 20
215.8779293912881
 30
0.0
 10
140.9954493912998
 20
215.8040993193367
 30
0.0
 10
140.9147434700612
 20
215.7132868826838
 30
0.0
 10
140.8389229680811
 20
215.608572085355
 30
0.0
 10
140.7714890571503
 20
215.4861257118988
 30
0.0
 10
140.7109931433754
 20
215.345164271508
 30
0.0
 10
140.6602785781657
 20
215.1816548203251
 30
0.0
 10
140.6160570974522
 20
214.9965215969743
 30
0.0
 10
140.5801069934012
 20
214.7885599586172
 30
0.0
 10
140.5526724691292
 20
214.5583558596608
 30
0.0
 10
140.534060406391
 20
214.3054123473032
 30
0.0
 10
140.520928890993
 20
214.0303019962532
 30
0.0
 10
140.5195833376218
 20
213.839398318478
 30
0.0
 10
140.5188846230766
 20
213.7402664822846
 30
0.0
  0
LINE
  5
6F
330
1F
100
AcDbEntity
  8
0
  6
Continuous
 62
     7
370
    25
100
AcDbLine
 10
99.8411764706
 20
222.8652941176
 30
0.0
 11
99.8411764706
 21
204.4652941176
 31
0.0
  0
LINE
  5
70
330
1F
100
AcDbEntity
  8
0
  6
Continuous
 62
     7
370
    25
100
AcDbLine
 10
211.8411764706
 20
222.8652941176
 30
0.0
 11
99.8411764706
 21
222.8652941176
 31
0.0
  0
LINE
  5
71
330
1F
100
AcDbEntity
  8
0
  6
Continuous
 62
     7
370
    25
100
AcDbLine
 10
211.8411764706
 20
204.4652941176
 30
0.0
 11
211.8411764706
 21
222.8652941176
 31
0.0
  0
LINE
  5
72
330
1F
100
AcDbEntity
  8
0
  6
Continuous
 62
     7
370
    25
100
AcDbLine
 10
99.8411764706
 20
204.4652941176
 30
0.0
 11
211.8411764706
 21
204.4652941176
 31
0.0
  0
LINE
  5
73
330
1F
100
AcDbEntity
  8
0
  6
Continuous
 62
     7
370
    25
100
AcDbLine
 10
112.8463453289
 20
213.5922924539
 30
0.0
 11
112.4010272622
 21
215.3344772412
 31
0.0
  0
LINE
  5
74
330
1F
100
AcDbEntity
  8
0
  6
Continuous
 62
     7
370
    25
100
AcDbLine
 10
112.4010272622
 20
215.3344772412
 30
0.0
 11
111.9892127492
 21
213.5922924539
 31
0.0
  0
LINE
  5
75
330
1F
100
AcDbEntity
  8
0
  6
Continuous
 62
     7
370
    25
100
AcDbLine
 10
111.9892127492
 20
213.5922924539
 30
0.0
 11
112.8463453289
 21
213.5922924539
 31
0.0
  0
LINE
  5
76
330
1F
100
AcDbEntity
  8
0
  6
Continuous
 62
     7
370
    25
100
AcDbLine
 10
112.6048405467
 20
211.5374078329
 30
0.0
 11
112.9831515061
 21
211.5374078329
 31
0.0
  0
SPLINE
  5
77
330
1F
100
AcDbEntity
  8
0
  6
Continuous
 62
     7
370
    25
100
AcDbSpline
210
0.0
220
0.0
230
1.0
 70
     8
 71
     3
 72
    13
 73
     9
 74
     0
 42
0.00000001
 43
0.00000001
 40
0.0
 40
0.0
 40
0.0
 40
0.0
 40
0.311706042263043
 40
0.5492051825783091
 40
0.7099780267738809
 40
0.7980694350956324
 40
0.8973339376112629
 40
0.9999999999999999
 40
0.9999999999999999
 40
0.9999999999999999
 40
0.9999999999999999
 10
112.983151506079
 20
211.5374078329248
 30
0.0
 10
113.0338621771656
 20
211.5376372739681
 30
0.0
 10
113.1232109853266
 20
211.538041533729
 30
0.0
 10
113.2388357550511
 20
211.5414040983845
 30
0.0
 10
113.3175240409619
 20
211.5479118996149
 30
0.0
 10
113.3740880960885
 20
211.5562142819512
 30
0.0
 10
113.4139402428623
 20
211.5897090587186
 30
0.0
 10
113.417094173369
 20
211.6235201391726
 30
0.0
 10
113.4186977029106
 20
211.6407104565323
 30
0.0
  0
SPLINE
  5
78
330
1F
100
AcDbEntity
  8
0
  6
Continuous
 62
     7
370
    25
100
AcDbSpline
210
0.0
220
0.0
230
1.0
 70
     8
 71
     3
 72
    11
 73
     7
 74
     0
 42
0.00000001
 43
0.00000001
 40
0.0
 40
0.0
 40
0.0
 40
0.0
 40
0.244044267760399
 40
0.501077264515618
 40
0.7607837377694403
 40
1.0
 40
1.0
 40
1.0
 40
1.0
 10
113.4186977029106
 20
211.6407104565323
 30
0.0
 10
113.418141999456
 20
211.6612129537807
 30
0.0
 10
113.4170010164309
 20
211.7033091494065
 30
0.0
 10
113.4080688028887
 20
211.7666840004369
 30
0.0
 10
113.3958209908865
 20
211.8289914134095
 30
0.0
 10
113.3858073844124
 20
211.8696843058306
 30
0.0
 10
113.3810062051079
 20
211.8891951457503
 30
0.0
  0
LINE
  5
79
330
1F
100
AcDbEntity
  8
0
  6
Continuous
 62
     7
370
    25
100
AcDbLine
 10
113.3810062051
 20
211.8891951458
 30
0.0
 11
113.1730049765
 21
212.5201787386
 31
0.0
  0
LINE
  5
7A
330
1F
100
AcDbEntity
  8
0
  6
Continuous
 62
     7
370
    25
100
AcDbLine
 10
113.1730049765
 20
212.5201787386
 30
0.0
 11
111.6653450644
 21
212.5201787386
 31
0.0
  0
LINE
  5
7B
330
1F
100
AcDbEntity
  8
0
  6
Continuous
 62
     7
370
    25
100
AcDbLine
 10
111.6653450644
 20
212.5201787386
 30
0.0
 11
111.4838674824
 21
211.9645781414
 31
0.0
  0
SPLINE
  5
7C
330
1F
100
AcDbEntity
  8
0
  6
Continuous
 62
     7
370
    25
100
AcDbSpline
210
0.0
220
0.0
230
1.0
 70
     8
 71
     3
 72
    11
 73
     7
 74
     0
 42
0.00000001
 43
0.00000001
 40
0.0
 40
0.0
 40
0.0
 40
0.0
 40
0.366255102407361
 40
0.6326792455254105
 40
0.8316415968659343
 40
1.0
 40
1.0
 40
1.0
 40
1.0
 10
111.4838674823702
 20
211.9645781413558
 30
0.0
 10
111.4706592818494
 20
211.9241526855096
 30
0.0
 10
111.4478430690912
 20
211.8543206292825
 30
0.0
 10
111.4199585195333
 20
211.7618455225233
 30
0.0
 10
111.4068358087607
 20
211.6890525948674
 30
0.0
 10
111.407009085443
 20
211.6463314999502
 30
0.0
 10
111.4070885053647
 20
211.6267506425313
 30
0.0
  0
SPLINE
  5
7D
330
1F
100
AcDbEntity
  8
0
  6
Continuous
 62
     7
370
    25
100
AcDbSpline
210
0.0
220
0.0
230
1.0
 70
     8
 71
     3
 72
    13
 73
     9
 74
     0
 42
0.00000001
 43
0.00000001
 40
0.0
 40
0.0
 40
0.0
 40
0.0
 40
0.1410617298054938
 40
0.2923905591519935
 40
0.3994435796494842
 40
0.5536272952573137
 40
0.752252566975977
 40
0.9999999999999999
 40
0.9999999999999999
 40
0.9999999999999999
 40
0.9999999999999999
 10
111.4070885053647
 20
211.6267506425313
 30
0.0
 10
111.4094909959228
 20
211.6117750909957
 30
0.0
 10
111.4144708409779
 20
211.580734000736
 30
0.0
 10
111.452713065678
 20
211.5562134136482
 30
0.0
 10
111.4940356471213
 20
211.5469752110708
 30
0.0
 10
111.5415249678928
 20
211.5423921359005
 30
0.0
 10
111.603358456495
 20
211.5378035988898
 30
0.0
 10
111.6495046839728
 20
211.5375490908952
 30
0.0
 10
111.6751169341841
 20
211.5374078329248
 30
0.0
  0
LINE
  5
7E
330
1F
100
AcDbEntity
  8
0
  6
Continuous
 62
     7
370
    25
100
AcDbLine
 10
111.6751169342
 20
211.5374078329
 30
0.0
 11
112.1706903312
 21
211.5374078329
 31
0.0
  0
LINE
  5
7F
330
1F
100
AcDbEntity
  8
0
  6
Continuous
 62
     7
370
    25
100
AcDbLine
 10
112.1706903312
 20
211.5374078329
 30
0.0
 11
112.1706903312
 21
210.4652941176
 31
0.0
  0
LINE
  5
80
330
1F
100
AcDbEntity
  8
0
  6
Continuous
 62
     7
370
    25
100
AcDbLine
 10
112.1706903312
 20
210.4652941176
 30
0.0
 11
112.6048405467
 21
210.4652941176
 31
0.0
  0
LINE
  5
81
330
1F
100
AcDbEntity
  8
0
  6
Continuous
 62
     7
370
    25
100
AcDbLine
 10
112.6048405467
 20
210.4652941176
 30
0.0
 11
112.6048405467
 21
211.5374078329
 31
0.0
  0
LINE
  5
82
330
1F
100
AcDbEntity
  8
0
  6
Continuous
 62
     7
370
    25
100
AcDbLine
 10
105.8411764706
 20
216.8652941176
 30
0.0
 11
105.8411764706
 21
210.4652941176
 31
0.0
  0
LINE
  5
83
330
1F
100
AcDbEntity
  8
0
  6
Continuous
 62
     7
370
    25
100
AcDbLine
 10
105.8411764706
 20
210.4652941176
 30
0.0
 11
109.0702156416
 21
210.4652941176
 31
0.0
  0
LINE
  5
84
330
1F
100
AcDbEntity
  8
0
  6
Continuous
 62
     7
370
    25
100
AcDbLine
 10
109.0702156416
 20
210.4652941176
 30
0.0
 11
109.0702156416
 21
211.5374078329
 31
0.0
  0
LINE
  5
85
330
1F
100
AcDbEntity
  8
0
  6
Continuous
 62
     7
370
    25
100
AcDbLine
 10
109.0702156416
 20
211.5374078329
 30
0.0
 11
109.3954793078
 21
211.5374078329
 31
0.0
  0
SPLINE
  5
86
330
1F
100
AcDbEntity
  8
0
  6
Continuous
 62
     7
370
    25
100
AcDbSpline
210
0.0
220
0.0
230
1.0
 70
     8
 71
     3
 72
    15
 73
    11
 74
     0
 42
0.00000001
 43
0.00000001
 40
0.0
 40
0.0
 40
0.0
 40
0.0
 40
0.1079985913660385
 40
0.2116887253900196
 40
0.3120118698373511
 40
0.4157020038613324
 40
0.5306259853749549
 40
0.6655917806894583
 40
0.821532646246411
 40
0.9999999999999999
 40
0.9999999999999999
 40
0.9999999999999999
 40
0.9999999999999999
 10
109.3954793078187
 20
211.5374078329248
 30
0.0
 10
109.4286725993439
 20
211.5389623225774
 30
0.0
 10
109.4937349810434
 20
211.5420092876261
 30
0.0
 10
109.5869972950992
 20
211.5675230234
 30
0.0
 10
109.6715277391976
 20
211.6108605366166
 30
0.0
 10
109.7493750628192
 20
211.6713251153378
 30
0.0
 10
109.8201604886702
 20
211.7543655878508
 30
0.0
 10
109.8870134134351
 20
211.8599231440443
 30
0.0
 10
109.9472631946636
 20
211.9911843704938
 30
0.0
 10
109.9825195722877
 20
212.087613441527
 30
0.0
 10
110.0013352354627
 20
212.1390758163684
 30
0.0
  0
LINE
  5
87
330
1F
100
AcDbEntity
  8
0
  6
Continuous
 62
     7
370
    25
100
AcDbLine
 10
110.0013352355
 20
212.1390758164
 30
0.0
 11
111.6384330231
 21
216.8652941176
 31
0.0
  0
LINE
  5
88
330
1F
100
AcDbEntity
  8
0
  6
Continuous
 62
     7
370
    25
100
AcDbLine
 10
111.6384330231
 20
216.8652941176
 30
0.0
 11
105.8411764706
 21
216.8652941176
 31
0.0
  0
LINE
  5
89
330
1F
100
AcDbEntity
  8
0
  6
Continuous
 62
     7
370
    25
100
AcDbLine
 10
119.2552959367
 20
212.3666207846
 30
0.0
 11
119.2552959367
 21
215.4656994928
 31
0.0
  0
SPLINE
  5
8A
330
1F
100
AcDbEntity
  8
0
  6
Continuous
 62
     7
370
    25
100
AcDbSpline
210
0.0
220
0.0
230
1.0
 70
     8
 71
     3
 72
    15
 73
    11
 74
     0
 42
0.00000001
 43
0.00000001
 40
0.0
 40
0.0
 40
0.0
 40
0.0
 40
0.1796043225575498
 40
0.3201288399607852
 40
0.423803910244835
 40
0.4968017853929803
 40
0.5709558074162252
 40
0.6783444928304011
 40
0.8203956774424512
 40
1.0
 40
1.0
 40
1.0
 40
1.0
 10
119.255295936734
 20
215.4656994928098
 30
0.0
 10
119.2548054542513
 20
215.5136469384795
 30
0.0
 10
119.2539312125516
 20
215.5991090250414
 30
0.0
 10
119.2413486027033
 20
215.7120117753766
 30
0.0
 10
119.2197461394583
 20
215.79390767348
 30
0.0
 10
119.1851813251349
 20
215.8541611358511
 30
0.0
 10
119.1217651947658
 20
215.8851584739727
 30
0.0
 10
119.037003691626
 20
215.9010481161692
 30
0.0
 10
118.9229096359352
 20
215.9138348391218
 30
0.0
 10
118.8370050841643
 20
215.9147143865449
 30
0.0
 10
118.7890381491002
 20
215.9152055036424
 30
0.0
  0
LINE
  5
8B
330
1F
100
AcDbEntity
  8
0
  6
Continuous
 62
     7
370
    25
100
AcDbLine
 10
118.7890381491
 20
215.9152055036
 30
0.0
 11
118.3618678407
 21
215.9152055036
 31
0.0
  0
LINE
  5
8C
330
1F
100
AcDbEntity
  8
0
  6
Continuous
 62
     7
370
    25
100
AcDbLine
 10
118.3618678407
 20
215.9152055036
 30
0.0
 11
118.3618678407
 21
216.8652941176
 31
0.0
  0
LINE
  5
8D
330
1F
100
AcDbEntity
  8
0
  6
Continuous
 62
     7
370
    25
100
AcDbLine
 10
118.3618678407
 20
216.8652941176
 30
0.0
 11
114.2471124733
 21
216.8652941176
 31
0.0
  0
LINE
  5
8E
330
1F
100
AcDbEntity
  8
0
  6
Continuous
 62
     7
370
    25
100
AcDbLine
 10
114.2471124733
 20
216.8652941176
 30
0.0
 11
115.7248589759
 21
212.1558275932
 31
0.0
  0
SPLINE
  5
8F
330
1F
100
AcDbEntity
  8
0
  6
Continuous
 62
     7
370
    25
100
AcDbSpline
210
0.0
220
0.0
230
1.0
 70
     8
 71
     3
 72
    19
 73
    15
 74
     0
 42
0.00000001
 43
0.00000001
 40
0.0
 40
0.0
 40
0.0
 40
0.0
 40
0.1347313867132462
 40
0.2536785001953135
 40
0.3598136134505296
 40
0.4514141109179942
 40
0.526843334665635
 40
0.5903712308564804
 40
0.6388517069187175
 40
0.6752852552685998
 40
0.7389854437950348
 40
0.8130131816173938
 40
0.8984502997111817
 40
1.0
 40
1.0
 40
1.0
 40
1.0
 10
115.7248589758779
 20
212.1558275931696
 30
0.0
 10
115.737234304916
 20
212.117604985111
 30
0.0
 10
115.7605351480707
 20
212.0456376869008
 30
0.0
 10
115.7964282730772
 20
211.9445527353006
 30
0.0
 10
115.8267275342133
 20
211.8550462182974
 30
0.0
 10
115.8597651877317
 20
211.7805509108204
 30
0.0
 10
115.8873934061855
 20
211.7175825756978
 30
0.0
 10
115.9133574628894
 20
211.6680631876203
 30
0.0
 10
115.9366659857401
 20
211.6303059794858
 30
0.0
 10
115.9668875216409
 20
211.5973632934746
 30
0.0
 10
116.0132497342589
 20
211.5719950587382
 30
0.0
 10
116.0767066252816
 20
211.551608318074
 30
0.0
 10
116.1539029843406
 20
211.5392252195142
 30
0.0
 10
116.2096828920616
 20
211.5380474575529
 30
0.0
 10
116.2399761125153
 20
211.5374078329248
 30
0.0
  0
LINE
  5
90
330
1F
100
AcDbEntity
  8
0
  6
Continuous
 62
     7
370
    25
100
AcDbLine
 10
116.2399761125
 20
211.5374078329
 30
0.0
 11
116.7536972678
 21
211.5374078329
 31
0.0
  0
LINE
  5
91
330
1F
100
AcDbEntity
  8
0
  6
Continuous
 62
     7
370
    25
100
AcDbLine
 10
116.7536972678
 20
211.5374078329
 30
0.0
 11
116.7536972678
 21
210.4652941176
 31
0.0
  0
SPLINE
  5
92
330
1F
100
AcDbEntity
  8
0
  6
Continuous
 62
     7
370
    25
100
AcDbSpline
210
0.0
220
0.0
230
1.0
 70
     8
 71
     3
 72
    19
 73
    15
 74
     0
 42
0.00000001
 43
0.00000001
 40
0.3411145545976442
 40
0.3411145545976442
 40
0.3411145545976442
 40
0.3411145545976442
 40
0.3678359612687424
 40
0.4306327437320178
 40
0.4914794119096894
 40
0.5501870663387292
 40
0.6069240064277386
 40
0.6621588147068798
 40
0.7161532863423531
 40
0.7699357392570509
 40
0.8244652384893488
 40
0.8805302533127644
 40
0.9388023976732746
 40
1.0
 40
1.0
 40
1.0
 40
1.0
 10
120.7346731803436
 20
210.4652941335893
 30
0.0
 10
120.7011134422385
 20
210.4759143730043
 30
0.0
 10
120.5892674312327
 20
210.51336469063
 30
0.0
 10
120.4048810806773
 20
210.5861724141083
 30
0.0
 10
120.1909846848656
 20
210.6962846993966
 30
0.0
 10
119.9963096845322
 20
210.8234516277455
 30
0.0
 10
119.8217159470164
 20
210.9658714291344
 30
0.0
 10
119.6708844751577
 20
211.1246475728142
 30
0.0
 10
119.5398798159607
 20
211.2954860711148
 30
0.0
 10
119.4367706717239
 20
211.483506340332
 30
0.0
 10
119.355219872437
 20
211.684509510474
 30
0.0
 10
119.2966456401516
 20
211.899507115156
 30
0.0
 10
119.2609929753785
 20
212.1285749234054
 30
0.0
 10
119.2572256994017
 20
212.285987310814
 30
0.0
 10
119.255295936734
 20
212.3666207845849
 30
0.0
  0
LINE
  5
93
330
1F
100
AcDbEntity
  8
0
  6
Continuous
 62
     7
370
    25
100
AcDbLine
 10
122.4716370826
 20
215.9152055036
 30
0.0
 11
121.9369762063
 21
215.9152055036
 31
0.0
  0
SPLINE
  5
94
330
1F
100
AcDbEntity
  8
0
  6
Continuous
 62
     7
370
    25
100
AcDbSpline
210
0.0
220
0.0
230
1.0
 70
     8
 71
     3
 72
    15
 73
    11
 74
     0
 42
0.00000001
 43
0.00000001
 40
0.0
 40
0.0
 40
0.0
 40
0.0
 40
0.1568012222068464
 40
0.2813944237970832
 40
0.3729247626923279
 40
0.4353339817188022
 40
0.5037546142511278
 40
0.6179986323950646
 40
0.7832199394161232
 40
1.0
 40
1.0
 40
1.0
 40
1.0
 10
121.9369762063286
 20
215.9152055036424
 30
0.0
 10
121.899273360187
 20
215.9149799464662
 30
0.0
 10
121.8316120848717
 20
215.9145751630676
 30
0.0
 10
121.7420876527034
 20
215.9050103721389
 30
0.0
 10
121.6768064370098
 20
215.8919695103616
 30
0.0
 10
121.626172177497
 20
215.8679930136466
 30
0.0
 10
121.6009495373166
 20
215.8111826937836
 30
0.0
 10
121.5903800172807
 20
215.7287720268971
 30
0.0
 10
121.5778530185517
 20
215.6097267594245
 30
0.0
 10
121.578080113511
 20
215.5178424586945
 30
0.0
 10
121.5782089865026
 20
215.4656994928098
 30
0.0
  0
LINE
  5
95
330
1F
100
AcDbEntity
  8
0
  6
Continuous
 62
     7
370
    25
100
AcDbLine
 10
121.5782089865
 20
215.4656994928
 30
0.0
 11
121.5782089865
 21
212.6793206182
 31
0.0
  0
SPLINE
  5
96
330
1F
100
AcDbEntity
  8
0
  6
Continuous
 62
     7
370
    25
100
AcDbSpline
210
0.0
220
0.0
230
1.0
 70
     8
 71
     3
 72
    23
 73
    19
 74
     0
 42
0.00000001
 43
0.00000001
 40
0.0
 40
0.0
 40
0.0
 40
0.0
 40
0.0994014752137244
 40
0.1902147372491799
 40
0.273454821533154
 40
0.3484864195481072
 40
0.4155967209968563
 40
0.4764629004648391
 40
0.5305128407485707
 40
0.5792486107098277
 40
0.625364992689839
 40
0.6716865501541335
 40
0.7191406993960174
 40
0.7686295129783189
 40
0.8211850231855792
 40
0.8771655129421105
 40
0.9363464880420937
 40
0.9999999999999999
 40
0.9999999999999999
 40
0.9999999999999999
 40
0.9999999999999999
 10
121.5782089865026
 20
212.6793206182076
 30
0.0
 10
121.5785907159915
 20
212.6211403713406
 30
0.0
 10
121.5793211938266
 20
212.5098066074593
 30
0.0
 10
121.5890405200086
 20
212.3499786624088
 30
0.0
 10
121.6055852193647
 20
212.2050711496956
 30
0.0
 10
121.6277329346755
 20
212.0749992408851
 30
0.0
 10
121.6545962790692
 20
211.9590955183949
 30
0.0
 10
121.6908763651511
 20
211.8586451457935
 30
0.0
 10
121.732837260447
 20
211.7724361080526
 30
0.0
 10
121.7802108691922
 20
211.69871223085
 30
0.0
 10
121.8385097755662
 20
211.6396750521782
 30
0.0
 10
121.9013411353575
 20
211.5869478052231
 30
0.0
 10
121.9734776596292
 20
211.5434962458563
 30
0.0
 10
122.0540211969046
 20
211.5089041723258
 30
0.0
 10
122.14227711215
 20
211.480703845017
 30
0.0
 10
122.2387483570944
 20
211.4616448861842
 30
0.0
 10
122.3429488162602
 20
211.4506047188132
 30
0.0
 10
122.4148392972768
 20
211.4489318916337
 30
0.0
 10
122.452093342966
 20
211.4480650233183
 30
0.0
  0
SPLINE
  5
97
330
1F
100
AcDbEntity
  8
0
  6
Continuous
 62
     7
370
    25
100
AcDbSpline
210
0.0
220
0.0
230
1.0
 70
     8
 71
     3
 72
    23
 73
    19
 74
     0
 42
0.00000001
 43
0.00000001
 40
0.0
 40
0.0
 40
0.0
 40
0.0
 40
0.0805050481684418
 40
0.1547429678247227
 40
0.2236452394566704
 40
0.2878277202150577
 40
0.3474371440176148
 40
0.4028894369703564
 40
0.4549941176655699
 40
0.5043797440094303
 40
0.553690809891401
 40
0.605573079215247
 40
0.6600451077943885
 40
0.7185194340229573
 40
0.781294233096448
 40
0.8488755226486564
 40
0.9216691537186341
 40
1.0
 40
1.0
 40
1.0
 40
1.0
 10
122.452093342966
 20
211.4480650233183
 30
0.0
 10
122.503782659515
 20
211.4487384832244
 30
0.0
 10
122.6031374009827
 20
211.4500329757681
 30
0.0
 10
122.7461229326195
 20
211.4634782097054
 30
0.0
 10
122.8781512832139
 20
211.481422743773
 30
0.0
 10
122.9981773943945
 20
211.511763523836
 30
0.0
 10
123.1081459854359
 20
211.5464102829775
 30
0.0
 10
123.204772663191
 20
211.5936510561127
 30
0.0
 10
123.2911838133364
 20
211.645918441484
 30
0.0
 10
123.3651784523599
 20
211.7088943561581
 30
0.0
 10
123.4296444051786
 20
211.7814296735494
 30
0.0
 10
123.4829735437163
 20
211.8662197867909
 30
0.0
 10
123.5319219708387
 20
211.9602622518172
 30
0.0
 10
123.5684638209194
 20
212.067311657191
 30
0.0
 10
123.5978013688208
 20
212.1850055369239
 30
0.0
 10
123.6182586269758
 20
212.313919136765
 30
0.0
 10
123.6309259931689
 20
212.453847007844
 30
0.0
 10
123.6323536330702
 20
212.5508612389339
 30
0.0
 10
123.6330936074516
 20
212.6011456598019
 30
0.0
  0
LINE
  5
98
330
1F
100
AcDbEntity
  8
0
  6
Continuous
 62
     7
370
    25
100
AcDbLine
 10
123.6330936075
 20
212.6011456598
 30
0.0
 11
123.6330936075
 21
215.4656994928
 31
0.0
  0
SPLINE
  5
99
330
1F
100
AcDbEntity
  8
0
  6
Continuous
 62
     7
370
    25
100
AcDbSpline
210
0.0
220
0.0
230
1.0
 70
     8
 71
     3
 72
    15
 73
    11
 74
     0
 42
0.00000001
 43
0.00000001
 40
0.0
 40
0.0
 40
0.0
 40
0.0
 40
0.1847311142628132
 40
0.3286374215227185
 40
0.4334502896277579
 40
0.5025417991384289
 40
0.5734540995385797
 40
0.6787003790091465
 40
0.8204928794806697
 40
1.0
 40
1.0
 40
1.0
 40
1.0
 10
123.6330936074516
 20
215.4656994928098
 30
0.0
 10
123.632713997014
 20
215.5150679838787
 30
0.0
 10
123.6320386684646
 20
215.6028947350684
 30
0.0
 10
123.6184202625618
 20
215.718183534455
 30
0.0
 10
123.5998616111334
 20
215.8010443533535
 30
0.0
 10
123.5655468040132
 20
215.8600418058505
 30
0.0
 10
123.5030943340347
 20
215.8873174779553
 30
0.0
 10
123.419965726555
 20
215.9026624826791
 30
0.0
 10
123.306157528051
 20
215.9132696105029
 30
0.0
 10
123.2203561693422
 20
215.9145116100217
 30
0.0
 10
123.1724197454182
 20
215.9152055036424
 30
0.0
  0
LINE
  5
9A
330
1F
100
AcDbEntity
  8
0
  6
Continuous
 62
     7
370
    25
100
AcDbLine
 10
123.1724197454
 20
215.9152055036
 30
0.0
 11
122.7396655114
 21
215.9152055036
 31
0.0
  0
LINE
  5
9B
330
1F
100
AcDbEntity
  8
0
  6
Continuous
 62
     7
370
    25
100
AcDbLine
 10
122.7396655114
 20
215.9152055036
 30
0.0
 11
122.7396655114
 21
216.8652941176
 31
0.0
  0
LINE
  5
9C
330
1F
100
AcDbEntity
  8
0
  6
Continuous
 62
     7
370
    25
100
AcDbLine
 10
122.4716370826
 20
216.8652941176
 30
0.0
 11
122.4716370826
 21
215.9152055036
 31
0.0
  0
LINE
  5
9D
330
1F
100
AcDbEntity
  8
0
  6
Continuous
 62
     7
370
    25
100
AcDbLine
 10
126.0453494668
 20
216.8652941176
 30
0.0
 11
126.0453494668
 21
215.9152055036
 31
0.0
  0
LINE
  5
9E
330
1F
100
AcDbEntity
  8
0
  6
Continuous
 62
     7
370
    25
100
AcDbLine
 10
126.0453494668
 20
215.9152055036
 30
0.0
 11
125.546984107
 21
215.9152055036
 31
0.0
  0
SPLINE
  5
9F
330
1F
100
AcDbEntity
  8
0
  6
Continuous
 62
     7
370
    25
100
AcDbSpline
210
0.0
220
0.0
230
1.0
 70
     8
 71
     3
 72
    15
 73
    11
 74
     0
 42
0.00000001
 43
0.00000001
 40
0.0
 40
0.0
 40
0.0
 40
0.0
 40
0.1730862758925616
 40
0.3083469802110922
 40
0.4067812736071017
 40
0.472996102653631
 40
0.5386220945102296
 40
0.6472847648698341
 40
0.799955382685914
 40
1.0
 40
1.0
 40
1.0
 40
1.0
 10
125.5469841069905
 20
215.9152055036424
 30
0.0
 10
125.505126410691
 20
215.9149438352508
 30
0.0
 10
125.4305584289954
 20
215.9144776824149
 30
0.0
 10
125.3319128139494
 20
215.9054601205652
 30
0.0
 10
125.2616538871822
 20
215.8911420019496
 30
0.0
 10
125.2066205454929
 20
215.8710782300936
 30
0.0
 10
125.1785971602388
 20
215.8162717506217
 30
0.0
 10
125.1644907114905
 20
215.738900853315
 30
0.0
 10
125.1536502439167
 20
215.6273617954349
 30
0.0
 10
125.1525470525423
 20
215.5420207947851
 30
0.0
 10
125.1519213707618
 20
215.4936191208118
 30
0.0
  0
LINE
  5
A0
330
1F
100
AcDbEntity
  8
0
  6
Continuous
 62
     7
370
    25
100
AcDbLine
 10
125.1519213708
 20
215.4936191208
 30
0.0
 11
125.1519213708
 21
212.444795743
 31
0.0
  0
SPLINE
  5
A1
330
1F
100
AcDbEntity
  8
0
  6
Continuous
 62
     7
370
    25
100
AcDbSpline
210
0.0
220
0.0
230
1.0
 70
     8
 71
     3
 72
    19
 73
    15
 74
     0
 42
0.00000001
 43
0.00000001
 40
0.0
 40
0.0
 40
0.0
 40
0.0
 40
0.0591062000369035
 40
0.115183196891213
 40
0.16928833004296
 40
0.2219130858669816
 40
0.2739427861194377
 40
0.3263524995245323
 40
0.3801556203628605
 40
0.4356765125750131
 40
0.4934539414519619
 40
0.5538810531993092
 40
0.6178320390987362
 40
0.6501665027300673
 40
0.6501665027300673
 40
0.6501665027300673
 40
0.6501665027300673
 10
125.1519213707618
 20
212.4447957429906
 30
0.0
 10
125.1495266556208
 20
212.3609020950977
 30
0.0
 10
125.1448599549125
 20
212.1974143635714
 30
0.0
 10
125.1079744949887
 20
211.9593879047313
 30
0.0
 10
125.0469291124673
 20
211.7360812673649
 30
0.0
 10
124.9599926735025
 20
211.5275085325837
 30
0.0
 10
124.8468071699763
 20
211.3348454625164
 30
0.0
 10
124.7103577910327
 20
211.1558216867219
 30
0.0
 10
124.5486339037987
 20
210.9922027642704
 30
0.0
 10
124.363303644039
 20
210.8434897726428
 30
0.0
 10
124.1539329444913
 20
210.7124495335356
 30
0.0
 10
123.9219175459912
 20
210.597745343101
 30
0.0
 10
123.7140233295444
 20
210.5179164037284
 30
0.0
 10
123.5833538681265
 20
210.4778605060637
 30
0.0
 10
123.5392166571576
 20
210.4652941363589
 30
0.0
  0
LINE
  5
A2
330
1F
100
AcDbEntity
  8
0
  6
Continuous
 62
     7
370
    25
100
AcDbLine
 10
129.5297190415
 20
210.4652941176
 30
0.0
 11
129.5297190415
 21
211.5374078329
 31
0.0
  0
LINE
  5
A3
330
1F
100
AcDbEntity
  8
0
  6
Continuous
 62
     7
370
    25
100
AcDbLine
 10
129.5297190415
 20
211.5374078329
 30
0.0
 11
130.1411588947
 21
211.5374078329
 31
0.0
  0
SPLINE
  5
A4
330
1F
100
AcDbEntity
  8
0
  6
Continuous
 62
     7
370
    25
100
AcDbSpline
210
0.0
220
0.0
230
1.0
 70
     8
 71
     3
 72
    15
 73
    11
 74
     0
 42
0.00000001
 43
0.00000001
 40
0.0
 40
0.0
 40
0.0
 40
0.0
 40
0.1723578543351533
 40
0.3091895733055325
 40
0.4129419951145252
 40
0.4831095754500825
 40
0.5534251219274695
 40
0.6592322466047824
 40
0.8069285750623346
 40
1.0
 40
1.0
 40
1.0
 40
1.0
 10
130.1411588947238
 20
211.5374078329248
 30
0.0
 10
130.1876996251354
 20
211.5374686684657
 30
0.0
 10
130.2711881823166
 20
211.5375778002197
 30
0.0
 10
130.3825889986131
 20
211.5489386161155
 30
0.0
 10
130.4645314578684
 20
211.5635532853931
 30
0.0
 10
130.5289933334889
 20
211.58682511454
 30
0.0
 10
130.566586901578
 20
211.6457117689194
 30
0.0
 10
130.5858833362759
 20
211.7311238382819
 30
0.0
 10
130.6013902008856
 20
211.8510023462382
 30
0.0
 10
130.6016726993912
 20
211.9431059053975
 30
0.0
 10
130.6018327567572
 20
211.995289732158
 30
0.0
  0
LINE
  5
A5
330
1F
100
AcDbEntity
  8
0
  6
Continuous
 62
     7
370
    25
100
AcDbLine
 10
130.6018327568
 20
211.9952897322
 30
0.0
 11
130.6018327568
 21
215.825862694
 31
0.0
  0
LINE
  5
A6
330
1F
100
AcDbEntity
  8
0
  6
Continuous
 62
     7
370
    25
100
AcDbLine
 10
130.6018327568
 20
215.825862694
 30
0.0
 11
130.3994154537
 21
215.825862694
 31
0.0
  0
SPLINE
  5
A7
330
1F
100
AcDbEntity
  8
0
  6
Continuous
 62
     7
370
    25
100
AcDbSpline
210
0.0
220
0.0
230
1.0
 70
     8
 71
     3
 72
    23
 73
    19
 74
     0
 42
0.00000001
 43
0.00000001
 40
0.0
 40
0.0
 40
0.0
 40
0.0
 40
0.0588134443742804
 40
0.115016587732729
 40
0.1694099823639338
 40
0.2215477103491419
 40
0.2740911855275702
 40
0.3267728968701131
 40
0.3792277097197287
 40
0.4342855975312912
 40
0.4905921696547361
 40
0.5500109141369203
 40
0.6129115652750199
 40
0.6799843916697542
 40
0.7517994567799584
 40
0.8288215998442156
 40
0.9114876515622364
 40
0.9999999999999999
 40
0.9999999999999999
 40
0.9999999999999999
 40
0.9999999999999999
 10
130.3994154537425
 20
215.8258626940359
 30
0.0
 10
130.3635541338177
 20
215.8245671438676
 30
0.0
 10
130.293423117122
 20
215.8220335435798
 30
0.0
 10
130.1906519772884
 20
215.8087408649253
 30
0.0
 10
130.0945751066335
 20
215.782981761217
 30
0.0
 10
130.003248657303
 20
215.7495916319965
 30
0.0
 10
129.918183799313
 20
215.704507222466
 30
0.0
 10
129.8385926881188
 20
215.6501340193006
 30
0.0
 10
129.7647036063712
 20
215.5858958744557
 30
0.0
 10
129.6963861390354
 20
215.5126136303085
 30
0.0
 10
129.6359930928807
 20
215.42739894671
 30
0.0
 10
129.5826847922361
 20
215.3321172372991
 30
0.0
 10
129.5381999583969
 20
215.2252313096905
 30
0.0
 10
129.5021187396936
 20
215.107376950436
 30
0.0
 10
129.4743421554809
 20
214.9784592799734
 30
0.0
 10
129.4556479285613
 20
214.8383976315328
 30
0.0
 10
129.4424489403796
 20
214.6874560131803
 30
0.0
 10
129.4410826886818
 20
214.5830050989483
 30
0.0
 10
129.4403762318729
 20
214.5289959733418
 30
0.0
  0
LINE
  5
A8
330
1F
100
AcDbEntity
  8
0
  6
Continuous
 62
     7
370
    25
100
AcDbLine
 10
129.4403762319
 20
214.5289959733
 30
0.0
 11
129.4403762319
 21
214.4131295171
 31
0.0
  0
LINE
  5
A9
330
1F
100
AcDbEntity
  8
0
  6
Continuous
 62
     7
370
    25
100
AcDbLine
 10
129.4403762319
 20
214.4131295171
 30
0.0
 11
128.278919707
 21
214.4131295171
 31
0.0
  0
LINE
  5
AA
330
1F
100
AcDbEntity
  8
0
  6
Continuous
 62
     7
370
    25
100
AcDbLine
 10
128.278919707
 20
214.4131295171
 30
0.0
 11
128.278919707
 21
216.8652941176
 31
0.0
  0
LINE
  5
AB
330
1F
100
AcDbEntity
  8
0
  6
Continuous
 62
     7
370
    25
100
AcDbLine
 10
135.2476588563
 20
216.8652941176
 30
0.0
 11
135.2476588563
 21
214.4131295171
 31
0.0
  0
LINE
  5
AC
330
1F
100
AcDbEntity
  8
0
  6
Continuous
 62
     7
370
    25
100
AcDbLine
 10
135.2476588563
 20
214.4131295171
 30
0.0
 11
134.0862023314
 21
214.4131295171
 31
0.0
  0
LINE
  5
AD
330
1F
100
AcDbEntity
  8
0
  6
Continuous
 62
     7
370
    25
100
AcDbLine
 10
134.0862023314
 20
214.4131295171
 30
0.0
 11
134.0862023314
 21
214.5289959733
 31
0.0
  0
SPLINE
  5
AE
330
1F
100
AcDbEntity
  8
0
  6
Continuous
 62
     7
370
    25
100
AcDbSpline
210
0.0
220
0.0
230
1.0
 70
     8
 71
     3
 72
    23
 73
    19
 74
     0
 42
0.00000001
 43
0.00000001
 40
0.0
 40
0.0
 40
0.0
 40
0.0
 40
0.0812203348133901
 40
0.1575751996312603
 40
0.2294843514707235
 40
0.2970829353599859
 40
0.3611545747343228
 40
0.4224305058229955
 40
0.4807677534284598
 40
0.5372362684460997
 40
0.5920997168065536
 40
0.6466060634516917
 40
0.7015864084965814
 40
0.7562153130754805
 40
0.8135861784196305
 40
0.8721385497896718
 40
0.934104727797094
 40
1.0
 40
1.0
 40
1.0
 40
1.0
 10
134.0862023314099
 20
214.5289959733418
 30
0.0
 10
134.0853963553206
 20
214.5806648566879
 30
0.0
 10
134.0838326848006
 20
214.6809074206554
 30
0.0
 10
134.0718528263019
 20
214.826606530683
 30
0.0
 10
134.0486706180255
 20
214.962026101347
 30
0.0
 10
134.0208052131848
 20
215.088706609108
 30
0.0
 10
133.9803670482468
 20
215.2047629632102
 30
0.0
 10
133.9358722849882
 20
215.3130185618721
 30
0.0
 10
133.8791057832311
 20
215.4099892330512
 30
0.0
 10
133.8146866065958
 20
215.4967996807385
 30
0.0
 10
133.7431106242931
 20
215.5746449807699
 30
0.0
 10
133.6628516200001
 20
215.6421022987522
 30
0.0
 10
133.5750919797962
 20
215.6991176423567
 30
0.0
 10
133.479582972916
 20
215.746185189681
 30
0.0
 10
133.3768788267963
 20
215.7820181628969
 30
0.0
 10
133.2663321130735
 20
215.807021219637
 30
0.0
 10
133.1485460979628
 20
215.822616821772
 30
0.0
 10
133.0671863868164
 20
215.8247587961494
 30
0.0
 10
133.025256467333
 20
215.8258626940359
 30
0.0
  0
LINE
  5
AF
330
1F
100
AcDbEntity
  8
0
  6
Continuous
 62
     7
370
    25
100
AcDbLine
 10
133.0252564673
 20
215.825862694
 30
0.0
 11
132.9247458065
 21
215.825862694
 31
0.0
  0
LINE
  5
B0
330
1F
100
AcDbEntity
  8
0
  6
Continuous
 62
     7
370
    25
100
AcDbLine
 10
132.9247458065
 20
215.825862694
 30
0.0
 11
132.9247458065
 21
211.9952897322
 31
0.0
  0
SPLINE
  5
B1
330
1F
100
AcDbEntity
  8
0
  6
Continuous
 62
     7
370
    25
100
AcDbSpline
210
0.0
220
0.0
230
1.0
 70
     8
 71
     3
 72
    15
 73
    11
 74
     0
 42
0.00000001
 43
0.00000001
 40
0.0
 40
0.0
 40
0.0
 40
0.0
 40
0.2189819205605041
 40
0.3848664930873663
 40
0.5023845235393851
 40
0.571978066593097
 40
0.6355901907646425
 40
0.7245617994463999
 40
0.8463041129289391
 40
0.9999999999999999
 40
0.9999999999999999
 40
0.9999999999999999
 40
0.9999999999999999
 10
132.9247458065257
 20
211.995289732158
 30
0.0
 10
132.9247069871309
 20
211.9422510710528
 30
0.0
 10
132.924638761022
 20
211.8490342271903
 30
0.0
 10
132.936276707051
 20
211.7272494348239
 30
0.0
 10
132.9492109715561
 20
211.643745973601
 30
0.0
 10
132.9736514448262
 20
211.5841824076987
 30
0.0
 10
133.0255846536203
 20
211.5613531345098
 30
0.0
 10
133.0898686734616
 20
211.54732221829
 30
0.0
 10
133.1781951088608
 20
211.5381252757123
 30
0.0
 10
133.2448970370002
 20
211.5376647875896
 30
0.0
 10
133.2821170449516
 20
211.5374078329248
 30
0.0
  0
LINE
  5
B2
330
1F
100
AcDbEntity
  8
0
  6
Continuous
 62
     7
370
    25
100
AcDbLine
 10
133.282117045
 20
211.5374078329
 30
0.0
 11
133.9968595218
 21
211.5374078329
 31
0.0
  0
LINE
  5
B3
330
1F
100
AcDbEntity
  8
0
  6
Continuous
 62
     7
370
    25
100
AcDbLine
 10
133.9968595218
 20
211.5374078329
 30
0.0
 11
133.9968595218
 21
210.4652941176
 31
0.0
  0
SPLINE
  5
B4
330
1F
100
AcDbEntity
  8
0
  6
Continuous
 62
     7
370
    25
100
AcDbSpline
210
0.0
220
0.0
230
1.0
 70
     8
 71
     3
 72
    20
 73
    16
 74
     0
 42
0.00000001
 43
0.00000001
 40
0.2453878338259809
 40
0.2453878338259809
 40
0.2453878338259809
 40
0.2453878338259809
 40
0.2748087967102912
 40
0.3364941140911557
 40
0.3967195914107868
 40
0.4558077289792066
 40
0.5145861886311494
 40
0.5729237967008354
 40
0.6303387998243954
 40
0.6879298978788696
 40
0.7461240285789611
 40
0.8057418394250729
 40
0.8676671969349234
 40
0.932252054077818
 40
1.0
 40
1.0
 40
1.0
 40
1.0
 10
140.0942777484048
 20
210.4652941176468
 30
0.0
 10
140.0400301595817
 20
210.4808921909968
 30
0.0
 10
139.8730615857669
 20
210.532779320575
 30
0.0
 10
139.6017819491213
 20
210.6372106749421
 30
0.0
 10
139.2921649586803
 20
210.7955267526093
 30
0.0
 10
139.0050575389137
 20
210.9817874656632
 30
0.0
 10
138.74404071828
 20
211.1974806123209
 30
0.0
 10
138.5091473287404
 20
211.4368737569724
 30
0.0
 10
138.305057989341
 20
211.7002369607744
 30
0.0
 10
138.1324181052757
 20
211.9848947922019
 30
0.0
 10
137.9925898760814
 20
212.2916047588405
 30
0.0
 10
137.8831548575447
 20
212.6191648887194
 30
0.0
 10
137.8060564938537
 20
212.9681859095961
 30
0.0
 10
137.7571119368434
 20
213.3382323841649
 30
0.0
 10
137.7519170527556
 20
213.5921336499135
 30
0.0
 10
137.7492575252757
 20
213.7221187240833
 30
0.0
  0
SPLINE
  5
B5
330
1F
100
AcDbEntity
  8
0
  6
Continuous
 62
     7
370
    25
100
AcDbSpline
210
0.0
220
0.0
230
1.0
 70
     8
 71
     3
 72
    19
 73
    15
 74
     0
 42
0.00000001
 43
0.00000001
 40
0.0
 40
0.0
 40
0.0
 40
0.0
 40
0.0679678275136186
 40
0.1325415585477252
 40
0.1942263985708738
 40
0.2539187661107315
 40
0.3121066416690497
 40
0.3695996755296057
 40
0.4269400997584142
 40
0.485051125125354
 40
0.5437880611148939
 40
0.6028493130272692
 40
0.6628408751783358
 40
0.6886347646588794
 40
0.6886347646588794
 40
0.6886347646588794
 40
0.6886347646588794
 10
137.7492575252757
 20
213.7221187240833
 30
0.0
 10
137.7518982871874
 20
213.8530369281328
 30
0.0
 10
137.7570479397852
 20
214.1083356987684
 30
0.0
 10
137.8060178048238
 20
214.4797543018564
 30
0.0
 10
137.8829146910656
 20
214.8299754088665
 30
0.0
 10
137.9944772160616
 20
215.157835457417
 30
0.0
 10
138.1331538397604
 20
215.4664447817157
 30
0.0
 10
138.3079757583777
 20
215.7510290831133
 30
0.0
 10
138.5133862315265
 20
216.0139033559208
 30
0.0
 10
138.7482648165533
 20
216.2542284452267
 30
0.0
 10
139.0107323971118
 20
216.4694162193343
 30
0.0
 10
139.298880481017
 20
216.6553786695562
 30
0.0
 10
139.5475786955794
 20
216.7825915254937
 30
0.0
 10
139.6997970892704
 20
216.8469154233727
 30
0.0
 10
139.7459523315774
 20
216.8652941011362
 30
0.0
  0
LINE
  5
B6
330
1F
100
AcDbEntity
  8
0
  6
Continuous
 62
     7
370
    25
100
AcDbLine
 10
150.3465936798
 20
215.763043531
 30
0.0
 11
150.3465936798
 21
211.9938937508
 31
0.0
  0
SPLINE
  5
B7
330
1F
100
AcDbEntity
  8
0
  6
Continuous
 62
     7
370
    25
100
AcDbSpline
210
0.0
220
0.0
230
1.0
 70
     8
 71
     3
 72
    15
 73
    11
 74
     0
 42
0.00000001
 43
0.00000001
 40
0.0
 40
0.0
 40
0.0
 40
0.0
 40
0.1980158247476467
 40
0.3512300800567234
 40
0.4574522751734905
 40
0.5235556224971931
 40
0.5893798552146514
 40
0.6893516148567612
 40
0.8247914487376271
 40
1.0
 40
1.0
 40
1.0
 40
1.0
 10
150.3465936797896
 20
211.9938937507579
 30
0.0
 10
150.3470844435084
 20
211.9413008304478
 30
0.0
 10
150.3479549344425
 20
211.8480142679497
 30
0.0
 10
150.3602165555281
 20
211.7266497956139
 30
0.0
 10
150.3756678045763
 20
211.642134945727
 30
0.0
 10
150.4063110762148
 20
211.5825449076838
 30
0.0
 10
150.4673894108219
 20
211.5608430710098
 30
0.0
 10
150.5453080516774
 20
211.5475078267312
 30
0.0
 10
150.6545514486654
 20
211.5379743298847
 30
0.0
 10
150.7370218128255
 20
211.5376121216859
 30
0.0
 10
150.7835358580213
 20
211.5374078329248
 30
0.0
  0
LINE
  5
B8
330
1F
100
AcDbEntity
  8
0
  6
Continuous
 62
     7
370
    25
100
AcDbLine
 10
150.783535858
 20
211.5374078329
 30
0.0
 11
151.2400217759
 21
211.5374078329
 31
0.0
  0
LINE
  5
B9
330
1F
100
AcDbEntity
  8
0
  6
Continuous
 62
     7
370
    25
100
AcDbLine
 10
151.2400217759
 20
211.5374078329
 30
0.0
 11
151.2400217759
 21
210.4652941176
 31
0.0
  0
LINE
  5
BA
330
1F
100
AcDbEntity
  8
0
  6
Continuous
 62
     7
370
    25
100
AcDbLine
 10
151.7314072287
 20
210.4652941176
 30
0.0
 11
150.3465936798
 21
215.763043531
 31
0.0
  0
LINE
  5
BB
330
1F
100
AcDbEntity
  8
0
  6
Continuous
 62
     7
370
    25
100
AcDbLine
 10
153.920306064
 20
211.5374078329
 30
0.0
 11
154.2874491723
 21
211.5374078329
 31
0.0
  0
SPLINE
  5
BC
330
1F
100
AcDbEntity
  8
0
  6
Continuous
 62
     7
370
    25
100
AcDbSpline
210
0.0
220
0.0
230
1.0
 70
     8
 71
     3
 72
    15
 73
    11
 74
     0
 42
0.00000001
 43
0.00000001
 40
0.0
 40
0.0
 40
0.0
 40
0.0
 40
0.182530985234881
 40
0.3282973472565763
 40
0.4385032605976139
 40
0.5131668744116143
 40
0.5830502773776015
 40
0.6836454122939201
 40
0.8222601585613879
 40
1.0
 40
1.0
 40
1.0
 40
1.0
 10
154.2874491722755
 20
211.5374078329248
 30
0.0
 10
154.3399873477456
 20
211.5384239917483
 30
0.0
 10
154.4344816803892
 20
211.5402516389596
 30
0.0
 10
154.5612643863161
 20
211.5476162521875
 30
0.0
 10
154.6540220572135
 20
211.5657327884327
 30
0.0
 10
154.7269296726935
 20
211.5868076269495
 30
0.0
 10
154.7722564646819
 20
211.6455053670181
 30
0.0
 10
154.7959700280549
 20
211.7320625317244
 30
0.0
 10
154.8116491365996
 20
211.8514026754408
 30
0.0
 10
154.8129841177596
 20
211.942635651821
 30
0.0
 10
154.8137341601137
 20
211.9938937507579
 30
0.0
  0
LINE
  5
BD
330
1F
100
AcDbEntity
  8
0
  6
Continuous
 62
     7
370
    25
100
AcDbLine
 10
154.8137341601
 20
211.9938937508
 30
0.0
 11
154.8137341601
 21
215.7714194194
 31
0.0
  0
LINE
  5
BE
330
1F
100
AcDbEntity
  8
0
  6
Continuous
 62
     7
370
    25
100
AcDbLine
 10
154.8137341601
 20
215.7714194194
 30
0.0
 11
153.3423697644
 21
210.4652941176
 31
0.0
  0
LINE
  5
BF
330
1F
100
AcDbEntity
  8
0
  6
Continuous
 62
     7
370
    25
100
AcDbLine
 10
153.920306064
 20
210.4652941176
 30
0.0
 11
153.920306064
 21
211.5374078329
 31
0.0
  0
SPLINE
  5
C0
330
1F
100
AcDbEntity
  8
0
  6
Continuous
 62
     7
370
    25
100
AcDbSpline
210
0.0
220
0.0
230
1.0
 70
     8
 71
     3
 72
    19
 73
    15
 74
     0
 42
0.00000001
 43
0.00000001
 40
0.3136224499347091
 40
0.3136224499347091
 40
0.3136224499347091
 40
0.3136224499347091
 40
0.3418863387582999
 40
0.4025861539585484
 40
0.461943875268449
 40
0.5211280645926268
 40
0.5795262054671522
 40
0.6369886337251986
 40
0.6940553150026008
 40
0.7514518917272585
 40
0.8101958631662215
 40
0.8708753790821573
 40
0.9338800926645486
 40
0.9999999999999999
 40
0.9999999999999999
 40
0.9999999999999999
 40
0.9999999999999999
 10
143.3025363692191
 20
216.86529410299
 30
0.0
 10
143.3537151054889
 20
216.845246511715
 30
0.0
 10
143.5133721755149
 20
216.7785084538478
 30
0.0
 10
143.7708309050446
 20
216.6476306753342
 30
0.0
 10
144.0642341807346
 20
216.4583354633142
 30
0.0
 10
144.329885924339
 20
216.2387655193744
 30
0.0
 10
144.5695161985671
 20
215.9962759588159
 30
0.0
 10
144.7770937110141
 20
215.7309217905797
 30
0.0
 10
144.9528842152307
 20
215.4458362474065
 30
0.0
 10
145.0958363866539
 20
215.140243356084
 30
0.0
 10
145.2081295888241
 20
214.8146571825038
 30
0.0
 10
145.2867729746034
 20
214.4683084082633
 30
0.0
 10
145.3354837713023
 20
214.1018214262468
 30
0.0
 10
145.3407167357217
 20
213.8507057206392
 30
0.0
 10
145.3433963418266
 20
213.7221187240833
 30
0.0
  0
SPLINE
  5
C1
330
1F
100
AcDbEntity
  8
0
  6
Continuous
 62
     7
370
    25
100
AcDbSpline
210
0.0
220
0.0
230
1.0
 70
     8
 71
     3
 72
    20
 73
    16
 74
     0
 42
0.00000001
 43
0.00000001
 40
0.0
 40
0.0
 40
0.0
 40
0.0
 40
0.0659781887281459
 40
0.1291159126370211
 40
0.1894326497518389
 40
0.247973280664001
 40
0.3055647323521136
 40
0.362509099323279
 40
0.4196604919426095
 40
0.4777633428958626
 40
0.5365184847966304
 40
0.5959494836722307
 40
0.6566246065551727
 40
0.7192200657931682
 40
0.7505334314650056
 40
0.7505334314650056
 40
0.7505334314650056
 40
0.7505334314650056
 10
145.3433963418266
 20
213.7221187240833
 30
0.0
 10
145.3408305700603
 20
213.593520719096
 30
0.0
 10
145.3358094870386
 20
213.3418610555419
 30
0.0
 10
145.2854122936659
 20
212.9754651427743
 30
0.0
 10
145.206103932486
 20
212.6294960762392
 30
0.0
 10
145.0962407120749
 20
212.3030030314712
 30
0.0
 10
144.9513981297747
 20
211.9977348668697
 30
0.0
 10
144.7762070800895
 20
211.712016251156
 30
0.0
 10
144.5679311797952
 20
211.4480626648076
 30
0.0
 10
144.3289550309213
 20
211.206678867004
 30
0.0
 10
144.0616767474262
 20
210.9899617464215
 30
0.0
 10
143.7684054868187
 20
210.8005429146167
 30
0.0
 10
143.4495029352888
 20
210.6409106977164
 30
0.0
 10
143.1672085358194
 20
210.5347238507414
 30
0.0
 10
142.9919971604303
 20
210.4817079965913
 30
0.0
 10
142.9332235971414
 20
210.465294117647
 30
0.0
  0
LINE
  5
C2
330
1F
100
AcDbEntity
  8
0
  6
Continuous
 62
     7
370
    25
100
AcDbLine
 10
147.9343378204
 20
210.4652941176
 30
0.0
 11
147.9343378204
 21
211.5374078329
 31
0.0
  0
LINE
  5
C3
330
1F
100
AcDbEntity
  8
0
  6
Continuous
 62
     7
370
    25
100
AcDbLine
 10
147.9343378204
 20
211.5374078329
 30
0.0
 11
148.3433603706
 21
211.5374078329
 31
0.0
  0
SPLINE
  5
C4
330
1F
100
AcDbEntity
  8
0
  6
Continuous
 62
     7
370
    25
100
AcDbSpline
210
0.0
220
0.0
230
1.0
 70
     8
 71
     3
 72
    15
 73
    11
 74
     0
 42
0.00000001
 43
0.00000001
 40
0.0
 40
0.0
 40
0.0
 40
0.0
 40
0.1824039214942012
 40
0.3265413943382106
 40
0.4322036101678223
 40
0.5061993319210333
 40
0.5778466246279593
 40
0.6815071971916354
 40
0.8209712999972262
 40
1.0
 40
1.0
 40
1.0
 40
1.0
 10
148.3433603706443
 20
211.5374078329248
 30
0.0
 10
148.3935974803027
 20
211.538210472606
 30
0.0
 10
148.4835324756744
 20
211.5396473664979
 30
0.0
 10
148.602800494075
 20
211.5490998618948
 30
0.0
 10
148.6896881611107
 20
211.567169228403
 30
0.0
 10
148.756129140285
 20
211.5948255070273
 30
0.0
 10
148.7930809116348
 20
211.6563670586318
 30
0.0
 10
148.8134056778707
 20
211.7407548640455
 30
0.0
 10
148.8265689480331
 20
211.8567295246189
 30
0.0
 10
148.8273351980006
 20
211.9445364205645
 30
0.0
 10
148.8277659164794
 20
211.9938937507579
 30
0.0
  0
LINE
  5
C5
330
1F
100
AcDbEntity
  8
0
  6
Continuous
 62
     7
370
    25
100
AcDbLine
 10
148.8277659165
 20
211.9938937508
 30
0.0
 11
148.8277659165
 21
215.46290753
 31
0.0
  0
SPLINE
  5
C6
330
1F
100
AcDbEntity
  8
0
  6
Continuous
 62
     7
370
    25
100
AcDbSpline
210
0.0
220
0.0
230
1.0
 70
     8
 71
     3
 72
    15
 73
    11
 74
     0
 42
0.00000001
 43
0.00000001
 40
0.0
 40
0.0
 40
0.0
 40
0.0
 40
0.1797128740481262
 40
0.3180278407787756
 40
0.4204571622712427
 40
0.4900235434993329
 40
0.5627981587641057
 40
0.6705166203669161
 40
0.8152049273390903
 40
0.9999999999999999
 40
0.9999999999999999
 40
0.9999999999999999
 40
0.9999999999999999
 10
148.8277659164794
 20
215.4629075300096
 30
0.0
 10
148.8273367317621
 20
215.5122598528738
 30
0.0
 10
148.826577227527
 20
215.599595903566
 30
0.0
 10
148.8135647109357
 20
215.7147174567473
 30
0.0
 10
148.7928868643537
 20
215.7973888846734
 30
0.0
 10
148.7572735183675
 20
215.857699598381
 30
0.0
 10
148.6917550393021
 20
215.8860492856534
 30
0.0
 10
148.6045686613085
 20
215.9031708297662
 30
0.0
 10
148.4844935858465
 20
215.9131176357993
 30
0.0
 10
148.3940736032167
 20
215.9144552725408
 30
0.0
 10
148.3433603706443
 20
215.9152055036424
 30
0.0
  0
LINE
  5
C7
330
1F
100
AcDbEntity
  8
0
  6
Continuous
 62
     7
370
    25
100
AcDbLine
 10
148.3433603706
 20
215.9152055036
 30
0.0
 11
147.9343378204
 21
215.9152055036
 31
0.0
  0
LINE
  5
C8
330
1F
100
AcDbEntity
  8
0
  6
Continuous
 62
     7
370
    25
100
AcDbLine
 10
147.9343378204
 20
215.9152055036
 30
0.0
 11
147.9343378204
 21
216.8652941176
 31
0.0
  0
LINE
  5
C9
330
1F
100
AcDbEntity
  8
0
  6
Continuous
 62
     7
370
    25
100
AcDbLine
 10
152.7867691672
 20
213.2028136432
 30
0.0
 11
153.7337993452
 21
216.8652941176
 31
0.0
  0
LINE
  5
CA
330
1F
100
AcDbEntity
  8
0
  6
Continuous
 62
     7
370
    25
100
AcDbLine
 10
151.9099894446
 20
216.8652941176
 30
0.0
 11
152.7867691672
 21
213.2028136432
 31
0.0
  0
LINE
  5
CB
330
1F
100
AcDbEntity
  8
0
  6
Continuous
 62
     7
370
    25
100
AcDbLine
 10
163.3515564031
 20
211.5374078329
 30
0.0
 11
163.7298673626
 21
211.5374078329
 31
0.0
  0
SPLINE
  5
CC
330
1F
100
AcDbEntity
  8
0
  6
Continuous
 62
     7
370
    25
100
AcDbSpline
210
0.0
220
0.0
230
1.0
 70
     8
 71
     3
 72
    13
 73
     9
 74
     0
 42
0.00000001
 43
0.00000001
 40
0.0
 40
0.0
 40
0.0
 40
0.0
 40
0.3117060422630401
 40
0.5492051825783016
 40
0.7099780267738799
 40
0.7980694350956348
 40
0.8973339376112662
 40
1.0
 40
1.0
 40
1.0
 40
1.0
 10
163.7298673625605
 20
211.5374078329248
 30
0.0
 10
163.7805780336471
 20
211.5376372739681
 30
0.0
 10
163.8699268418081
 20
211.538041533729
 30
0.0
 10
163.9855516115325
 20
211.5414040983845
 30
0.0
 10
164.0642398974434
 20
211.5479118996149
 30
0.0
 10
164.12080395257
 20
211.5562142819512
 30
0.0
 10
164.1606560993438
 20
211.5897090587186
 30
0.0
 10
164.1638100298505
 20
211.6235201391726
 30
0.0
 10
164.1654135593921
 20
211.6407104565323
 30
0.0
  0
SPLINE
  5
CD
330
1F
100
AcDbEntity
  8
0
  6
Continuous
 62
     7
370
    25
100
AcDbSpline
210
0.0
220
0.0
230
1.0
 70
     8
 71
     3
 72
    11
 73
     7
 74
     0
 42
0.00000001
 43
0.00000001
 40
0.0
 40
0.0
 40
0.0
 40
0.0
 40
0.2440442677603996
 40
0.5010772645156159
 40
0.7607837377694388
 40
1.0
 40
1.0
 40
1.0
 40
1.0
 10
164.1654135593921
 20
211.6407104565323
 30
0.0
 10
164.1648578559375
 20
211.6612129537807
 30
0.0
 10
164.1637168729124
 20
211.7033091494065
 30
0.0
 10
164.1547846593702
 20
211.7666840004369
 30
0.0
 10
164.1425368473679
 20
211.8289914134095
 30
0.0
 10
164.1325232408939
 20
211.8696843058306
 30
0.0
 10
164.1277220615894
 20
211.8891951457503
 30
0.0
  0
LINE
  5
CE
330
1F
100
AcDbEntity
  8
0
  6
Continuous
 62
     7
370
    25
100
AcDbLine
 10
164.1277220616
 20
211.8891951458
 30
0.0
 11
163.919720833
 21
212.5201787386
 31
0.0
  0
LINE
  5
CF
330
1F
100
AcDbEntity
  8
0
  6
Continuous
 62
     7
370
    25
100
AcDbLine
 10
163.919720833
 20
212.5201787386
 30
0.0
 11
162.4120609209
 21
212.5201787386
 31
0.0
  0
LINE
  5
D0
330
1F
100
AcDbEntity
  8
0
  6
Continuous
 62
     7
370
    25
100
AcDbLine
 10
162.4120609209
 20
212.5201787386
 30
0.0
 11
162.2305833389
 21
211.9645781414
 31
0.0
  0
SPLINE
  5
D1
330
1F
100
AcDbEntity
  8
0
  6
Continuous
 62
     7
370
    25
100
AcDbSpline
210
0.0
220
0.0
230
1.0
 70
     8
 71
     3
 72
    11
 73
     7
 74
     0
 42
0.00000001
 43
0.00000001
 40
0.0
 40
0.0
 40
0.0
 40
0.0
 40
0.366255102407363
 40
0.6326792455254128
 40
0.8316415968659341
 40
1.0
 40
1.0
 40
1.0
 40
1.0
 10
162.2305833388517
 20
211.9645781413558
 30
0.0
 10
162.2173751383309
 20
211.9241526855096
 30
0.0
 10
162.1945589255727
 20
211.8543206292825
 30
0.0
 10
162.1666743760148
 20
211.7618455225233
 30
0.0
 10
162.1535516652422
 20
211.6890525948674
 30
0.0
 10
162.1537249419245
 20
211.6463314999502
 30
0.0
 10
162.1538043618462
 20
211.6267506425313
 30
0.0
  0
SPLINE
  5
D2
330
1F
100
AcDbEntity
  8
0
  6
Continuous
 62
     7
370
    25
100
AcDbSpline
210
0.0
220
0.0
230
1.0
 70
     8
 71
     3
 72
    13
 73
     9
 74
     0
 42
0.00000001
 43
0.00000001
 40
0.0
 40
0.0
 40
0.0
 40
0.0
 40
0.1410617298054875
 40
0.2923905591519911
 40
0.399443579649484
 40
0.5536272952573184
 40
0.7522525669759668
 40
1.0
 40
1.0
 40
1.0
 40
1.0
 10
162.1538043618462
 20
211.6267506425313
 30
0.0
 10
162.1562068524043
 20
211.6117750909957
 30
0.0
 10
162.1611866974594
 20
211.580734000736
 30
0.0
 10
162.1994289221594
 20
211.5562134136482
 30
0.0
 10
162.2407515036028
 20
211.5469752110708
 30
0.0
 10
162.2882408243742
 20
211.5423921359005
 30
0.0
 10
162.3500743129765
 20
211.5378035988898
 30
0.0
 10
162.3962205404543
 20
211.5375490908952
 30
0.0
 10
162.4218327906656
 20
211.5374078329248
 30
0.0
  0
LINE
  5
D3
330
1F
100
AcDbEntity
  8
0
  6
Continuous
 62
     7
370
    25
100
AcDbLine
 10
162.4218327907
 20
211.5374078329
 30
0.0
 11
162.9174061877
 21
211.5374078329
 31
0.0
  0
LINE
  5
D4
330
1F
100
AcDbEntity
  8
0
  6
Continuous
 62
     7
370
    25
100
AcDbLine
 10
162.9174061877
 20
211.5374078329
 30
0.0
 11
162.9174061877
 21
210.4652941176
 31
0.0
  0
LINE
  5
D5
330
1F
100
AcDbEntity
  8
0
  6
Continuous
 62
     7
370
    25
100
AcDbLine
 10
162.9174061877
 20
210.4652941176
 30
0.0
 11
163.3515564031
 21
210.4652941176
 31
0.0
  0
LINE
  5
D6
330
1F
100
AcDbEntity
  8
0
  6
Continuous
 62
     7
370
    25
100
AcDbLine
 10
163.3515564031
 20
210.4652941176
 30
0.0
 11
163.3515564031
 21
211.5374078329
 31
0.0
  0
LINE
  5
D7
330
1F
100
AcDbEntity
  8
0
  6
Continuous
 62
     7
370
    25
100
AcDbLine
 10
157.8513896867
 20
216.8652941176
 30
0.0
 11
157.8513896867
 21
215.9152055036
 31
0.0
  0
LINE
  5
D8
330
1F
100
AcDbEntity
  8
0
  6
Continuous
 62
     7
370
    25
100
AcDbLine
 10
157.8513896867
 20
215.9152055036
 30
0.0
 11
157.3348765687
 21
215.9152055036
 31
0.0
  0
SPLINE
  5
D9
330
1F
100
AcDbEntity
  8
0
  6
Continuous
 62
     7
370
    25
100
AcDbSpline
210
0.0
220
0.0
230
1.0
 70
     8
 71
     3
 72
    15
 73
    11
 74
     0
 42
0.00000001
 43
0.00000001
 40
0.0
 40
0.0
 40
0.0
 40
0.0
 40
0.1614715456845318
 40
0.2858689471351853
 40
0.3797411454951152
 40
0.4401874174703162
 40
0.5049122700618623
 40
0.616483433397866
 40
0.7821872382981575
 40
1.0
 40
1.0
 40
1.0
 40
1.0
 10
157.3348765686966
 20
215.9152055036424
 30
0.0
 10
157.2948859144468
 20
215.9148374163331
 30
0.0
 10
157.2240865288511
 20
215.914185755193
 30
0.0
 10
157.129695166853
 20
215.9062932965265
 30
0.0
 10
157.0626947936366
 20
215.8941271002831
 30
0.0
 10
157.0085996544072
 20
215.8746298000726
 30
0.0
 10
156.9837474193679
 20
215.8172506533606
 30
0.0
 10
156.968052425807
 20
215.7350781458065
 30
0.0
 10
156.96060251495
 20
215.6117462518919
 30
0.0
 10
156.9589181829789
 20
215.5168197068076
 30
0.0
 10
156.9579615906692
 20
215.4629075300096
 30
0.0
  0
LINE
  5
DA
330
1F
100
AcDbEntity
  8
0
  6
Continuous
 62
     7
370
    25
100
AcDbLine
 10
156.9579615907
 20
215.46290753
 30
0.0
 11
156.9579615907
 21
211.9938937508
 31
0.0
  0
SPLINE
  5
DB
330
1F
100
AcDbEntity
  8
0
  6
Continuous
 62
     7
370
    25
100
AcDbSpline
210
0.0
220
0.0
230
1.0
 70
     8
 71
     3
 72
    15
 73
    11
 74
     0
 42
0.00000001
 43
0.00000001
 40
0.0
 40
0.0
 40
0.0
 40
0.0
 40
0.2182259061042308
 40
0.384684754282252
 40
0.4973329283869753
 40
0.5632552860208071
 40
0.6249833991016914
 40
0.7160421977226588
 40
0.8414680371431356
 40
1.0
 40
1.0
 40
1.0
 40
1.0
 10
156.9579615906692
 20
211.9938937507579
 30
0.0
 10
156.9589356751233
 20
211.9395319842935
 30
0.0
 10
156.9606527739112
 20
211.8437040271639
 30
0.0
 10
156.9679574169418
 20
211.7188321958409
 30
0.0
 10
156.9840549474052
 20
211.6356778079403
 30
0.0
 10
157.008231649873
 20
211.5762158469721
 30
0.0
 10
157.0633033128096
 20
211.5574635930391
 30
0.0
 10
157.1307090126789
 20
211.546562309599
 30
0.0
 10
157.2245534741632
 20
211.5383963000944
 30
0.0
 10
157.2953508257237
 20
211.5377619736371
 30
0.0
 10
157.3348765686966
 20
211.5374078329248
 30
0.0
  0
LINE
  5
DC
330
1F
100
AcDbEntity
  8
0
  6
Continuous
 62
     7
370
    25
100
AcDbLine
 10
157.3348765687
 20
211.5374078329
 30
0.0
 11
157.8513896867
 21
211.5374078329
 31
0.0
  0
LINE
  5
DD
330
1F
100
AcDbEntity
  8
0
  6
Continuous
 62
     7
370
    25
100
AcDbLine
 10
157.8513896867
 20
211.5374078329
 30
0.0
 11
157.8513896867
 21
210.4652941176
 31
0.0
  0
LINE
  5
DE
330
1F
100
AcDbEntity
  8
0
  6
Continuous
 62
     7
370
    25
100
AcDbLine
 10
159.8169314981
 20
210.4652941176
 30
0.0
 11
159.8169314981
 21
211.5374078329
 31
0.0
  0
LINE
  5
DF
330
1F
100
AcDbEntity
  8
0
  6
Continuous
 62
     7
370
    25
100
AcDbLine
 10
159.8169314981
 20
211.5374078329
 30
0.0
 11
160.1421951643
 21
211.5374078329
 31
0.0
  0
SPLINE
  5
E0
330
1F
100
AcDbEntity
  8
0
  6
Continuous
 62
     7
370
    25
100
AcDbSpline
210
0.0
220
0.0
230
1.0
 70
     8
 71
     3
 72
    15
 73
    11
 74
     0
 42
0.00000001
 43
0.00000001
 40
0.0
 40
0.0
 40
0.0
 40
0.0
 40
0.1079985913660355
 40
0.2116887253900137
 40
0.3120118698373489
 40
0.415702003861333
 40
0.530625985374953
 40
0.6655917806894585
 40
0.8215326462464095
 40
1.0
 40
1.0
 40
1.0
 40
1.0
 10
160.1421951643002
 20
211.5374078329248
 30
0.0
 10
160.1753884558254
 20
211.5389623225774
 30
0.0
 10
160.2404508375249
 20
211.5420092876261
 30
0.0
 10
160.3337131515807
 20
211.5675230234
 30
0.0
 10
160.4182435956791
 20
211.6108605366166
 30
0.0
 10
160.4960909193007
 20
211.6713251153378
 30
0.0
 10
160.5668763451517
 20
211.7543655878509
 30
0.0
 10
160.6337292699166
 20
211.8599231440443
 30
0.0
 10
160.6939790511451
 20
211.9911843704938
 30
0.0
 10
160.7292354287692
 20
212.087613441527
 30
0.0
 10
160.7480510919442
 20
212.1390758163684
 30
0.0
  0
LINE
  5
E1
330
1F
100
AcDbEntity
  8
0
  6
Continuous
 62
     7
370
    25
100
AcDbLine
 10
160.7480510919
 20
212.1390758164
 30
0.0
 11
162.3851488796
 21
216.8652941176
 31
0.0
  0
LINE
  5
E2
330
1F
100
AcDbEntity
  8
0
  6
Continuous
 62
     7
370
    25
100
AcDbLine
 10
164.9938283297
 20
216.8652941176
 30
0.0
 11
166.4715748324
 21
212.1558275932
 31
0.0
  0
SPLINE
  5
E3
330
1F
100
AcDbEntity
  8
0
  6
Continuous
 62
     7
370
    25
100
AcDbSpline
210
0.0
220
0.0
230
1.0
 70
     8
 71
     3
 72
    19
 73
    15
 74
     0
 42
0.00000001
 43
0.00000001
 40
0.0
 40
0.0
 40
0.0
 40
0.0
 40
0.1347313867132443
 40
0.2536785001953134
 40
0.3598136134505299
 40
0.4514141109179957
 40
0.5268433346656344
 40
0.59037123085648
 40
0.6388517069187184
 40
0.6752852552686023
 40
0.7389854437950375
 40
0.813013181617393
 40
0.8984502997111852
 40
0.9999999999999999
 40
0.9999999999999999
 40
0.9999999999999999
 40
0.9999999999999999
 10
166.4715748323594
 20
212.1558275931696
 30
0.0
 10
166.4839501613975
 20
212.117604985111
 30
0.0
 10
166.5072510045522
 20
212.0456376869008
 30
0.0
 10
166.5431441295587
 20
211.9445527353006
 30
0.0
 10
166.5734433906948
 20
211.8550462182974
 30
0.0
 10
166.6064810442132
 20
211.7805509108204
 30
0.0
 10
166.634109262667
 20
211.7175825756978
 30
0.0
 10
166.6600733193708
 20
211.6680631876203
 30
0.0
 10
166.6833818422216
 20
211.6303059794858
 30
0.0
 10
166.7136033781223
 20
211.5973632934746
 30
0.0
 10
166.7599655907403
 20
211.5719950587382
 30
0.0
 10
166.8234224817631
 20
211.551608318074
 30
0.0
 10
166.9006188408221
 20
211.5392252195142
 30
0.0
 10
166.9563987485431
 20
211.5380474575529
 30
0.0
 10
166.9866919689968
 20
211.5374078329248
 30
0.0
  0
LINE
  5
E4
330
1F
100
AcDbEntity
  8
0
  6
Continuous
 62
     7
370
    25
100
AcDbLine
 10
166.986691969
 20
211.5374078329
 30
0.0
 11
167.5004131242
 21
211.5374078329
 31
0.0
  0
LINE
  5
E5
330
1F
100
AcDbEntity
  8
0
  6
Continuous
 62
     7
370
    25
100
AcDbLine
 10
167.5004131242
 20
211.5374078329
 30
0.0
 11
167.5004131242
 21
210.4652941176
 31
0.0
  0
LINE
  5
E6
330
1F
100
AcDbEntity
  8
0
  6
Continuous
 62
     7
370
    25
100
AcDbLine
 10
170.5380686509
 20
210.4652941176
 30
0.0
 11
170.5380686509
 21
211.5374078329
 31
0.0
  0
LINE
  5
E7
330
1F
100
AcDbEntity
  8
0
  6
Continuous
 62
     7
370
    25
100
AcDbLine
 10
170.5380686509
 20
211.5374078329
 30
0.0
 11
171.1495085041
 21
211.5374078329
 31
0.0
  0
SPLINE
  5
E8
330
1F
100
AcDbEntity
  8
0
  6
Continuous
 62
     7
370
    25
100
AcDbSpline
210
0.0
220
0.0
230
1.0
 70
     8
 71
     3
 72
    15
 73
    11
 74
     0
 42
0.00000001
 43
0.00000001
 40
0.0
 40
0.0
 40
0.0
 40
0.0
 40
0.1723578543351404
 40
0.3091895733055282
 40
0.412941995114525
 40
0.4831095754500823
 40
0.5534251219274717
 40
0.6592322466047847
 40
0.8069285750623346
 40
1.0
 40
1.0
 40
1.0
 40
1.0
 10
171.1495085040988
 20
211.5374078329248
 30
0.0
 10
171.1960492345104
 20
211.5374686684657
 30
0.0
 10
171.2795377916916
 20
211.5375778002197
 30
0.0
 10
171.3909386079881
 20
211.5489386161155
 30
0.0
 10
171.4728810672435
 20
211.5635532853931
 30
0.0
 10
171.537342942864
 20
211.58682511454
 30
0.0
 10
171.5749365109531
 20
211.6457117689194
 30
0.0
 10
171.594232945651
 20
211.7311238382819
 30
0.0
 10
171.6097398102606
 20
211.8510023462382
 30
0.0
 10
171.6100223087662
 20
211.9431059053975
 30
0.0
 10
171.6101823661322
 20
211.995289732158
 30
0.0
  0
LINE
  5
E9
330
1F
100
AcDbEntity
  8
0
  6
Continuous
 62
     7
370
    25
100
AcDbLine
 10
171.6101823661
 20
211.9952897322
 30
0.0
 11
171.6101823661
 21
215.825862694
 31
0.0
  0
LINE
  5
EA
330
1F
100
AcDbEntity
  8
0
  6
Continuous
 62
     7
370
    25
100
AcDbLine
 10
171.6101823661
 20
215.825862694
 30
0.0
 11
171.4077650631
 21
215.825862694
 31
0.0
  0
SPLINE
  5
EB
330
1F
100
AcDbEntity
  8
0
  6
Continuous
 62
     7
370
    25
100
AcDbSpline
210
0.0
220
0.0
230
1.0
 70
     8
 71
     3
 72
    23
 73
    19
 74
     0
 42
0.00000001
 43
0.00000001
 40
0.0
 40
0.0
 40
0.0
 40
0.0
 40
0.0588134443742843
 40
0.1150165877327272
 40
0.1694099823639339
 40
0.2215477103491438
 40
0.2740911855275671
 40
0.3267728968701116
 40
0.3792277097197288
 40
0.4342855975312926
 40
0.4905921696547375
 40
0.5500109141369189
 40
0.6129115652750193
 40
0.6799843916697538
 40
0.751799456779958
 40
0.8288215998442154
 40
0.9114876515622364
 40
0.9999999999999999
 40
0.9999999999999999
 40
0.9999999999999999
 40
0.9999999999999999
 10
171.4077650631175
 20
215.8258626940359
 30
0.0
 10
171.3719037431927
 20
215.8245671438676
 30
0.0
 10
171.3017727264971
 20
215.8220335435798
 30
0.0
 10
171.1990015866635
 20
215.8087408649253
 30
0.0
 10
171.1029247160085
 20
215.782981761217
 30
0.0
 10
171.0115982666781
 20
215.7495916319965
 30
0.0
 10
170.926533408688
 20
215.704507222466
 30
0.0
 10
170.8469422974939
 20
215.6501340193006
 30
0.0
 10
170.7730532157463
 20
215.5858958744557
 30
0.0
 10
170.7047357484104
 20
215.5126136303085
 30
0.0
 10
170.6443427022558
 20
215.42739894671
 30
0.0
 10
170.5910344016111
 20
215.3321172372991
 30
0.0
 10
170.546549567772
 20
215.2252313096905
 30
0.0
 10
170.5104683490687
 20
215.107376950436
 30
0.0
 10
170.482691764856
 20
214.9784592799734
 30
0.0
 10
170.4639975379363
 20
214.8383976315328
 30
0.0
 10
170.4507985497546
 20
214.6874560131803
 30
0.0
 10
170.4494322980569
 20
214.5830050989483
 30
0.0
 10
170.4487258412479
 20
214.5289959733418
 30
0.0
  0
LINE
  5
EC
330
1F
100
AcDbEntity
  8
0
  6
Continuous
 62
     7
370
    25
100
AcDbLine
 10
170.4487258412
 20
214.5289959733
 30
0.0
 11
170.4487258412
 21
214.4131295171
 31
0.0
  0
LINE
  5
ED
330
1F
100
AcDbEntity
  8
0
  6
Continuous
 62
     7
370
    25
100
AcDbLine
 10
170.4487258412
 20
214.4131295171
 30
0.0
 11
169.2872693164
 21
214.4131295171
 31
0.0
  0
LINE
  5
EE
330
1F
100
AcDbEntity
  8
0
  6
Continuous
 62
     7
370
    25
100
AcDbLine
 10
169.2872693164
 20
214.4131295171
 30
0.0
 11
169.2872693164
 21
216.8652941176
 31
0.0
  0
LINE
  5
EF
330
1F
100
AcDbEntity
  8
0
  6
Continuous
 62
     7
370
    25
100
AcDbLine
 10
176.2560084657
 20
216.8652941176
 30
0.0
 11
176.2560084657
 21
214.4131295171
 31
0.0
  0
LINE
  5
F0
330
1F
100
AcDbEntity
  8
0
  6
Continuous
 62
     7
370
    25
100
AcDbLine
 10
176.2560084657
 20
214.4131295171
 30
0.0
 11
175.0945519408
 21
214.4131295171
 31
0.0
  0
LINE
  5
F1
330
1F
100
AcDbEntity
  8
0
  6
Continuous
 62
     7
370
    25
100
AcDbLine
 10
175.0945519408
 20
214.4131295171
 30
0.0
 11
175.0945519408
 21
214.5289959733
 31
0.0
  0
SPLINE
  5
F2
330
1F
100
AcDbEntity
  8
0
  6
Continuous
 62
     7
370
    25
100
AcDbSpline
210
0.0
220
0.0
230
1.0
 70
     8
 71
     3
 72
    23
 73
    19
 74
     0
 42
0.00000001
 43
0.00000001
 40
0.0
 40
0.0
 40
0.0
 40
0.0
 40
0.0812203348133901
 40
0.1575751996312603
 40
0.2294843514707234
 40
0.2970829353599858
 40
0.3611545747343233
 40
0.4224305058229966
 40
0.4807677534284574
 40
0.5372362684460983
 40
0.5920997168065535
 40
0.6466060634516929
 40
0.701586408496578
 40
0.756215313075479
 40
0.8135861784196305
 40
0.8721385497896753
 40
0.9341047277970921
 40
1.0
 40
1.0
 40
1.0
 40
1.0
 10
175.094551940785
 20
214.5289959733418
 30
0.0
 10
175.0937459646957
 20
214.5806648566879
 30
0.0
 10
175.0921822941756
 20
214.6809074206554
 30
0.0
 10
175.0802024356769
 20
214.826606530683
 30
0.0
 10
175.0570202274006
 20
214.962026101347
 30
0.0
 10
175.0291548225598
 20
215.088706609108
 30
0.0
 10
174.9887166576218
 20
215.2047629632102
 30
0.0
 10
174.9442218943632
 20
215.3130185618721
 30
0.0
 10
174.8874553926062
 20
215.4099892330512
 30
0.0
 10
174.8230362159709
 20
215.4967996807385
 30
0.0
 10
174.7514602336681
 20
215.5746449807699
 30
0.0
 10
174.6712012293752
 20
215.6421022987522
 30
0.0
 10
174.5834415891713
 20
215.6991176423567
 30
0.0
 10
174.4879325822911
 20
215.746185189681
 30
0.0
 10
174.3852284361713
 20
215.7820181628969
 30
0.0
 10
174.2746817224486
 20
215.807021219637
 30
0.0
 10
174.1568957073378
 20
215.822616821772
 30
0.0
 10
174.0755359961914
 20
215.8247587961494
 30
0.0
 10
174.033606076708
 20
215.8258626940359
 30
0.0
  0
LINE
  5
F3
330
1F
100
AcDbEntity
  8
0
  6
Continuous
 62
     7
370
    25
100
AcDbLine
 10
174.0336060767
 20
215.825862694
 30
0.0
 11
173.9330954159
 21
215.825862694
 31
0.0
  0
LINE
  5
F4
330
1F
100
AcDbEntity
  8
0
  6
Continuous
 62
     7
370
    25
100
AcDbLine
 10
173.9330954159
 20
215.825862694
 30
0.0
 11
173.9330954159
 21
211.9952897322
 31
0.0
  0
SPLINE
  5
F5
330
1F
100
AcDbEntity
  8
0
  6
Continuous
 62
     7
370
    25
100
AcDbSpline
210
0.0
220
0.0
230
1.0
 70
     8
 71
     3
 72
    15
 73
    11
 74
     0
 42
0.00000001
 43
0.00000001
 40
0.0
 40
0.0
 40
0.0
 40
0.0
 40
0.2189819205605048
 40
0.3848664930873674
 40
0.5023845235393866
 40
0.5719780665931009
 40
0.6355901907646466
 40
0.7245617994464089
 40
0.8463041129289531
 40
1.0
 40
1.0
 40
1.0
 40
1.0
 10
173.9330954159007
 20
211.995289732158
 30
0.0
 10
173.9330565965059
 20
211.9422510710528
 30
0.0
 10
173.932988370397
 20
211.8490342271903
 30
0.0
 10
173.9446263164261
 20
211.7272494348239
 30
0.0
 10
173.9575605809312
 20
211.643745973601
 30
0.0
 10
173.9820010542012
 20
211.5841824076987
 30
0.0
 10
174.0339342629953
 20
211.5613531345098
 30
0.0
 10
174.0982182828367
 20
211.54732221829
 30
0.0
 10
174.1865447182358
 20
211.5381252757123
 30
0.0
 10
174.2532466463752
 20
211.5376647875896
 30
0.0
 10
174.2904666543267
 20
211.5374078329248
 30
0.0
  0
LINE
  5
F6
330
1F
100
AcDbEntity
  8
0
  6
Continuous
 62
     7
370
    25
100
AcDbLine
 10
174.2904666543
 20
211.5374078329
 30
0.0
 11
175.0052091312
 21
211.5374078329
 31
0.0
  0
LINE
  5
F7
330
1F
100
AcDbEntity
  8
0
  6
Continuous
 62
     7
370
    25
100
AcDbLine
 10
175.0052091312
 20
211.5374078329
 30
0.0
 11
175.0052091312
 21
210.4652941176
 31
0.0
  0
LINE
  5
F8
330
1F
100
AcDbEntity
  8
0
  6
Continuous
 62
     7
370
    25
100
AcDbLine
 10
178.5789215154
 20
210.4652941176
 30
0.0
 11
178.5789215154
 21
211.5374078329
 31
0.0
  0
LINE
  5
F9
330
1F
100
AcDbEntity
  8
0
  6
Continuous
 62
     7
370
    25
100
AcDbLine
 10
178.5789215154
 20
211.5374078329
 30
0.0
 11
179.0019038797
 21
211.5374078329
 31
0.0
  0
SPLINE
  5
FA
330
1F
100
AcDbEntity
  8
0
  6
Continuous
 62
     7
370
    25
100
AcDbSpline
210
0.0
220
0.0
230
1.0
 70
     8
 71
     3
 72
    15
 73
    11
 74
     0
 42
0.00000001
 43
0.00000001
 40
0.0
 40
0.0
 40
0.0
 40
0.0
 40
0.1776384224974564
 40
0.3198482507984357
 40
0.4243834045246337
 40
0.49922985765834
 40
0.5738177730484081
 40
0.6780112146522431
 40
0.8206383874405196
 40
1.0
 40
1.0
 40
1.0
 40
1.0
 10
179.0019038796684
 20
211.5374078329248
 30
0.0
 10
179.0498561230032
 20
211.537969314532
 30
0.0
 10
179.1361969097364
 20
211.5389802946308
 30
0.0
 10
179.2504523374035
 20
211.551090707229
 30
0.0
 10
179.3353268582239
 20
211.5680908292075
 30
0.0
 10
179.3996907018259
 20
211.5983720920463
 30
0.0
 10
179.4356500159983
 20
211.6598427963309
 30
0.0
 10
179.4566540650768
 20
211.7440092551789
 30
0.0
 10
179.4715547478571
 20
211.8584854597731
 30
0.0
 10
179.4720652434721
 20
211.9454504872712
 30
0.0
 10
179.4723496115026
 20
211.9938937507579
 30
0.0
  0
LINE
  5
FB
330
1F
100
AcDbEntity
  8
0
  6
Continuous
 62
     7
370
    25
100
AcDbLine
 10
179.4723496115
 20
211.9938937508
 30
0.0
 11
179.4723496115
 21
215.46290753
 31
0.0
  0
SPLINE
  5
FC
330
1F
100
AcDbEntity
  8
0
  6
Continuous
 62
     7
370
    25
100
AcDbSpline
210
0.0
220
0.0
230
1.0
 70
     8
 71
     3
 72
    15
 73
    11
 74
     0
 42
0.00000001
 43
0.00000001
 40
0.0
 40
0.0
 40
0.0
 40
0.0
 40
0.1798278914450702
 40
0.3191755827717829
 40
0.4236398917097345
 40
0.4960264443314454
 40
0.5710674726602538
 40
0.6758743820552869
 40
0.8201721085549223
 40
1.0
 40
1.0
 40
1.0
 40
1.0
 10
179.4723496115026
 20
215.4629075300096
 30
0.0
 10
179.4719044278847
 20
215.5113258893713
 30
0.0
 10
179.4711142738129
 20
215.5972633818367
 30
0.0
 10
179.4581387650692
 20
215.7110224271554
 30
0.0
 10
179.437065512373
 20
215.7934631040478
 30
0.0
 10
179.4020819774667
 20
215.8546817160058
 30
0.0
 10
179.3380385197176
 20
215.8844577850322
 30
0.0
 10
179.2528284063267
 20
215.9016661903115
 30
0.0
 10
179.1375705603782
 20
215.9135823726457
 30
0.0
 10
179.0503144030139
 20
215.9146263148497
 30
0.0
 10
179.0019038796684
 20
215.9152055036424
 30
0.0
  0
LINE
  5
FD
330
1F
100
AcDbEntity
  8
0
  6
Continuous
 62
     7
370
    25
100
AcDbLine
 10
179.0019038797
 20
215.9152055036
 30
0.0
 11
178.5789215154
 21
215.9152055036
 31
0.0
  0
LINE
  5
FE
330
1F
100
AcDbEntity
  8
0
  6
Continuous
 62
     7
370
    25
100
AcDbLine
 10
178.5789215154
 20
215.9152055036
 30
0.0
 11
178.5789215154
 21
216.8652941176
 31
0.0
  0
LINE
  5
FF
330
1F
100
AcDbEntity
  8
0
  6
Continuous
 62
     7
370
    25
100
AcDbLine
 10
182.6886907573
 20
216.8652941176
 30
0.0
 11
182.6886907573
 21
215.9152055036
 31
0.0
  0
LINE
  5
100
330
1F
100
AcDbEntity
  8
0
  6
Continuous
 62
     7
370
    25
100
AcDbLine
 10
182.6886907573
 20
215.9152055036
 30
0.0
 11
182.1805535277
 21
215.9152055036
 31
0.0
  0
SPLINE
  5
101
330
1F
100
AcDbEntity
  8
0
  6
Continuous
 62
     7
370
    25
100
AcDbSpline
210
0.0
220
0.0
230
1.0
 70
     8
 71
     3
 72
    15
 73
    11
 74
     0
 42
0.00000001
 43
0.00000001
 40
0.0
 40
0.0
 40
0.0
 40
0.0
 40
0.1628706880773756
 40
0.2926727199827898
 40
0.387090295883967
 40
0.4507240975142343
 40
0.51943946901958
 40
0.6306845384571781
 40
0.7903075870763617
 40
1.0
 40
1.0
 40
1.0
 40
1.0
 10
182.180553527699
 20
215.9152055036424
 30
0.0
 10
182.1400975113178
 20
215.9148650322562
 30
0.0
 10
182.0673995170147
 20
215.9142532175225
 30
0.0
 10
181.9708971869348
 20
215.9058823792814
 30
0.0
 10
181.901834135125
 20
215.89017448914
 30
0.0
 10
181.8471417466166
 20
215.8673278255037
 30
0.0
 10
181.8212776438646
 20
215.8086646109787
 30
0.0
 10
181.8056307962434
 20
215.7265746491886
 30
0.0
 10
181.7978202696694
 20
215.6066866559282
 30
0.0
 10
181.7961889199629
 20
215.5149783103417
 30
0.0
 10
181.7952626612711
 20
215.4629075300096
 30
0.0
  0
LINE
  5
102
330
1F
100
AcDbEntity
  8
0
  6
Continuous
 62
     7
370
    25
100
AcDbLine
 10
181.7952626613
 20
215.46290753
 30
0.0
 11
181.7952626613
 21
211.9938937508
 31
0.0
  0
SPLINE
  5
103
330
1F
100
AcDbEntity
  8
0
  6
Continuous
 62
     7
370
    25
100
AcDbSpline
210
0.0
220
0.0
230
1.0
 70
     8
 71
     3
 72
    15
 73
    11
 74
     0
 42
0.00000001
 43
0.00000001
 40
0.0
 40
0.0
 40
0.0
 40
0.0
 40
0.2108012327779213
 40
0.3700131893765233
 40
0.484499819740336
 40
0.552967663432472
 40
0.6180236089942474
 40
0.7121010721145504
 40
0.8395803500651002
 40
1.0
 40
1.0
 40
1.0
 40
1.0
 10
181.7952626612711
 20
211.9938937507579
 30
0.0
 10
181.7958823516732
 20
211.9413295140108
 30
0.0
 10
181.7969700759672
 20
211.8490650588668
 30
0.0
 10
181.8077896487161
 20
211.7280382724246
 30
0.0
 10
181.8221917960208
 20
211.64486927343
 30
0.0
 10
181.8486847581595
 20
211.584748664221
 30
0.0
 10
181.9044043201223
 20
211.5628810745983
 30
0.0
 10
181.973167535276
 20
211.5467025707666
 30
0.0
 10
182.0688119679912
 20
211.5383715881029
 30
0.0
 10
182.1405695904313
 20
211.5377526887393
 30
0.0
 10
182.180553527699
 20
211.5374078329248
 30
0.0
  0
LINE
  5
104
330
1F
100
AcDbEntity
  8
0
  6
Continuous
 62
     7
370
    25
100
AcDbLine
 10
182.1805535277
 20
211.5374078329
 30
0.0
 11
182.6886907573
 21
211.5374078329
 31
0.0
  0
LINE
  5
105
330
1F
100
AcDbEntity
  8
0
  6
Continuous
 62
     7
370
    25
100
AcDbLine
 10
182.6886907573
 20
211.5374078329
 30
0.0
 11
182.6886907573
 21
210.4652941176
 31
0.0
  0
SPLINE
  5
106
330
1F
100
AcDbEntity
  8
0
  6
Continuous
 62
     7
370
    25
100
AcDbSpline
210
0.0
220
0.0
230
1.0
 70
     8
 71
     3
 72
    20
 73
    16
 74
     0
 42
0.00000001
 43
0.00000001
 40
0.2453878420333484
 40
0.2453878420333484
 40
0.2453878420333484
 40
0.2453878420333484
 40
0.2748087967102901
 40
0.3364941140911546
 40
0.3967195914107857
 40
0.4558077289792076
 40
0.5145861886311495
 40
0.5729237967008355
 40
0.6303387998243948
 40
0.6879298978788696
 40
0.7461240285789615
 40
0.8057418394250729
 40
0.8676671969349234
 40
0.932252054077818
 40
1.0
 40
1.0
 40
1.0
 40
1.0
 10
187.5353096040472
 20
210.4652941307007
 30
0.0
 10
187.4810620305405
 20
210.4808922003454
 30
0.0
 10
187.3140934720959
 20
210.5327793262388
 30
0.0
 10
187.042813850163
 20
210.6372106749421
 30
0.0
 10
186.733196859722
 20
210.7955267526093
 30
0.0
 10
186.4460894399554
 20
210.9817874656632
 30
0.0
 10
186.1850726193216
 20
211.1974806123209
 30
0.0
 10
185.9501792297821
 20
211.4368737569724
 30
0.0
 10
185.7460898903827
 20
211.7002369607744
 30
0.0
 10
185.5734500063173
 20
211.9848947922019
 30
0.0
 10
185.4336217771231
 20
212.2916047588405
 30
0.0
 10
185.3241867585864
 20
212.6191648887194
 30
0.0
 10
185.2470883948953
 20
212.9681859095961
 30
0.0
 10
185.1981438378851
 20
213.3382323841649
 30
0.0
 10
185.1929489537973
 20
213.5921336499135
 30
0.0
 10
185.1902894263174
 20
213.7221187240833
 30
0.0
  0
SPLINE
  5
107
330
1F
100
AcDbEntity
  8
0
  6
Continuous
 62
     7
370
    25
100
AcDbSpline
210
0.0
220
0.0
230
1.0
 70
     8
 71
     3
 72
    19
 73
    15
 74
     0
 42
0.00000001
 43
0.00000001
 40
0.0
 40
0.0
 40
0.0
 40
0.0
 40
0.0679678275136186
 40
0.1325415585477252
 40
0.1942263985708738
 40
0.2539187661107311
 40
0.3121066416690498
 40
0.369599675529605
 40
0.4269400997584144
 40
0.4850511251253541
 40
0.5437880611148931
 40
0.6028493130272704
 40
0.662840875178337
 40
0.6886347646588804
 40
0.6886347646588804
 40
0.6886347646588804
 40
0.6886347646588804
 10
185.1902894263174
 20
213.7221187240833
 30
0.0
 10
185.192930188229
 20
213.8530369281328
 30
0.0
 10
185.1980798408269
 20
214.1083356987684
 30
0.0
 10
185.2470497058655
 20
214.4797543018564
 30
0.0
 10
185.3239465921073
 20
214.8299754088665
 30
0.0
 10
185.4355091171032
 20
215.157835457417
 30
0.0
 10
185.5741857408021
 20
215.4664447817157
 30
0.0
 10
185.7490076594194
 20
215.7510290831133
 30
0.0
 10
185.9544181325682
 20
216.0139033559208
 30
0.0
 10
186.1892967175949
 20
216.2542284452267
 30
0.0
 10
186.4517642981535
 20
216.4694162193343
 30
0.0
 10
186.7399123820587
 20
216.6553786695561
 30
0.0
 10
186.988610596621
 20
216.7825915254937
 30
0.0
 10
187.1408289903121
 20
216.8469154233727
 30
0.0
 10
187.1869842326192
 20
216.8652941011362
 30
0.0
  0
LINE
  5
108
330
1F
100
AcDbEntity
  8
0
  6
Continuous
 62
     7
370
    25
100
AcDbLine
 10
199.9290610486
 20
210.4652941176
 30
0.0
 11
197.6982827712
 21
215.0134015192
 31
0.0
  0
LINE
  5
109
330
1F
100
AcDbEntity
  8
0
  6
Continuous
 62
     7
370
    25
100
AcDbLine
 10
197.6982827712
 20
215.0134015192
 30
0.0
 11
197.6982827712
 21
211.9938937508
 31
0.0
  0
SPLINE
  5
10A
330
1F
100
AcDbEntity
  8
0
  6
Continuous
 62
     7
370
    25
100
AcDbSpline
210
0.0
220
0.0
230
1.0
 70
     8
 71
     3
 72
    15
 73
    11
 74
     0
 42
0.00000001
 43
0.00000001
 40
0.0
 40
0.0
 40
0.0
 40
0.0
 40
0.2061439590442375
 40
0.3654700136439521
 40
0.4756456589421706
 40
0.5435135036320028
 40
0.6087580409157429
 40
0.7039024407718849
 40
0.8340086614837434
 40
1.0
 40
1.0
 40
1.0
 40
1.0
 10
197.6982827712248
 20
211.9938937507579
 30
0.0
 10
197.6989427104072
 20
211.9413175203136
 30
0.0
 10
197.7001127082236
 20
211.8481057873725
 30
0.0
 10
197.7106681264311
 20
211.7267237887499
 30
0.0
 10
197.7248875659801
 20
211.6424793017056
 30
0.0
 10
197.7533961534991
 20
211.5832264126087
 30
0.0
 10
197.8105296406842
 20
211.5611160040113
 30
0.0
 10
197.8825386893605
 20
211.5473715804556
 30
0.0
 10
197.9824827649766
 20
211.5380690622327
 30
0.0
 10
198.0579940379233
 20
211.53764535938
 30
0.0
 10
198.100325414454
 20
211.5374078329248
 30
0.0
  0
LINE
  5
10B
330
1F
100
AcDbEntity
  8
0
  6
Continuous
 62
     7
370
    25
100
AcDbLine
 10
198.1003254145
 20
211.5374078329
 30
0.0
 11
198.5917108673
 21
211.5374078329
 31
0.0
  0
LINE
  5
10C
330
1F
100
AcDbEntity
  8
0
  6
Continuous
 62
     7
370
    25
100
AcDbLine
 10
198.5917108673
 20
211.5374078329
 30
0.0
 11
198.5917108673
 21
210.4652941176
 31
0.0
  0
LINE
  5
10D
330
1F
100
AcDbEntity
  8
0
  6
Continuous
 62
     7
370
    25
100
AcDbLine
 10
203.2375369668
 20
215.9152055036
 30
0.0
 11
202.788030956
 21
215.9152055036
 31
0.0
  0
SPLINE
  5
10E
330
1F
100
AcDbEntity
  8
0
  6
Continuous
 62
     7
370
    25
100
AcDbSpline
210
0.0
220
0.0
230
1.0
 70
     8
 71
     3
 72
    15
 73
    11
 74
     0
 42
0.00000001
 43
0.00000001
 40
0.0
 40
0.0
 40
0.0
 40
0.0
 40
0.1763208372443908
 40
0.3147483633723216
 40
0.4160723071586415
 40
0.483242201340663
 40
0.5476333537094361
 40
0.6517744472847905
 40
0.80269932240734
 40
0.9999999999999999
 40
0.9999999999999999
 40
0.9999999999999999
 40
0.9999999999999999
 10
202.7880309559941
 20
215.9152055036424
 30
0.0
 10
202.7410576314724
 20
215.9149650786867
 30
0.0
 10
202.6572060728797
 20
215.9145358987753
 30
0.0
 10
202.5460486433283
 20
215.9052460834234
 30
0.0
 10
202.4664258700104
 20
215.8915733481663
 30
0.0
 10
202.4045493922809
 20
215.8706269595253
 30
0.0
 10
202.3729413781361
 20
215.8121288090643
 30
0.0
 10
202.3577920473751
 20
215.7286954730428
 30
0.0
 10
202.3453831299963
 20
215.608355359943
 30
0.0
 10
202.3445697325801
 20
215.5155117015524
 30
0.0
 10
202.3441088707619
 20
215.4629075300096
 30
0.0
  0
LINE
  5
10F
330
1F
100
AcDbEntity
  8
0
  6
Continuous
 62
     7
370
    25
100
AcDbLine
 10
202.3441088708
 20
215.46290753
 30
0.0
 11
202.3441088708
 21
210.4652941176
 31
0.0
  0
LINE
  5
110
330
1F
100
AcDbEntity
  8
0
  6
Continuous
 62
     7
370
    25
100
AcDbLine
 10
205.8411764706
 20
210.4652941176
 30
0.0
 11
205.8411764706
 21
216.8652941176
 31
0.0
  0
LINE
  5
111
330
1F
100
AcDbEntity
  8
0
  6
Continuous
 62
     7
370
    25
100
AcDbLine
 10
203.2375369668
 20
216.8652941176
 30
0.0
 11
203.2375369668
 21
215.9152055036
 31
0.0
  0
LINE
  5
112
330
1F
100
AcDbEntity
  8
0
  6
Continuous
 62
     7
370
    25
100
AcDbLine
 10
198.9251812618
 20
216.8652941176
 30
0.0
 11
200.9146239171
 21
212.7128241718
 31
0.0
  0
LINE
  5
113
330
1F
100
AcDbEntity
  8
0
  6
Continuous
 62
     7
370
    25
100
AcDbLine
 10
200.9146239171
 20
212.7128241718
 30
0.0
 11
200.9146239171
 21
215.46290753
 31
0.0
  0
SPLINE
  5
114
330
1F
100
AcDbEntity
  8
0
  6
Continuous
 62
     7
370
    25
100
AcDbSpline
210
0.0
220
0.0
230
1.0
 70
     8
 71
     3
 72
    15
 73
    11
 74
     0
 42
0.00000001
 43
0.00000001
 40
0.0
 40
0.0
 40
0.0
 40
0.0
 40
0.1939664755891761
 40
0.3426775350156028
 40
0.4497037169447689
 40
0.5212562488473915
 40
0.5928529899182133
 40
0.6933847308129918
 40
0.829148445439038
 40
0.9999999999999999
 40
0.9999999999999999
 40
0.9999999999999999
 40
0.9999999999999999
 10
200.9146239170582
 20
215.4629075300096
 30
0.0
 10
200.9142859528914
 20
215.5136796062172
 30
0.0
 10
200.9136888768905
 20
215.6033778381904
 30
0.0
 10
200.8999044398723
 20
215.7204590879579
 30
0.0
 10
200.8817329414117
 20
215.8042470462509
 30
0.0
 10
200.8459119202317
 20
215.8627330487665
 30
0.0
 10
200.7845484301554
 20
215.8873206847802
 30
0.0
 10
200.7064233903123
 20
215.9049140750091
 30
0.0
 10
200.5996423096319
 20
215.9124230320013
 30
0.0
 10
200.5195298708807
 20
215.9142098541402
 30
0.0
 10
200.4748897760262
 20
215.9152055036424
 30
0.0
  0
LINE
  5
115
330
1F
100
AcDbEntity
  8
0
  6
Continuous
 62
     7
370
    25
100
AcDbLine
 10
200.474889776
 20
215.9152055036
 30
0.0
 11
200.021195821
 21
215.9152055036
 31
0.0
  0
LINE
  5
116
330
1F
100
AcDbEntity
  8
0
  6
Continuous
 62
     7
370
    25
100
AcDbLine
 10
200.021195821
 20
215.9152055036
 30
0.0
 11
200.021195821
 21
216.8652941176
 31
0.0
  0
SPLINE
  5
117
330
1F
100
AcDbEntity
  8
0
  6
Continuous
 62
     7
370
    25
100
AcDbSpline
210
0.0
220
0.0
230
1.0
 70
     8
 71
     3
 72
    19
 73
    15
 74
     0
 42
0.00000001
 43
0.00000001
 40
0.3136224499347063
 40
0.3136224499347063
 40
0.3136224499347063
 40
0.3136224499347063
 40
0.3418863387582998
 40
0.4025861539585483
 40
0.4619438752684489
 40
0.521128064592626
 40
0.5795262054671528
 40
0.6369886337251986
 40
0.6940553150026014
 40
0.7514518917272587
 40
0.8101958631662219
 40
0.8708753790821577
 40
0.9338800926645486
 40
1.0
 40
1.0
 40
1.0
 40
1.0
 10
190.7435682702608
 20
216.86529410299
 30
0.0
 10
190.7947470065305
 20
216.845246511715
 30
0.0
 10
190.9544040765566
 20
216.7785084538478
 30
0.0
 10
191.2118628060862
 20
216.6476306753342
 30
0.0
 10
191.5052660817763
 20
216.4583354633142
 30
0.0
 10
191.7709178253806
 20
216.2387655193744
 30
0.0
 10
192.0105480996088
 20
215.9962759588159
 30
0.0
 10
192.2181256120558
 20
215.7309217905796
 30
0.0
 10
192.3939161162723
 20
215.4458362474065
 30
0.0
 10
192.5368682876956
 20
215.140243356084
 30
0.0
 10
192.6491614898658
 20
214.8146571825038
 30
0.0
 10
192.7278048756451
 20
214.4683084082633
 30
0.0
 10
192.776515672344
 20
214.1018214262468
 30
0.0
 10
192.7817486367634
 20
213.8507057206392
 30
0.0
 10
192.7844282428683
 20
213.7221187240833
 30
0.0
  0
SPLINE
  5
118
330
1F
100
AcDbEntity
  8
0
  6
Continuous
 62
     7
370
    25
100
AcDbSpline
210
0.0
220
0.0
230
1.0
 70
     8
 71
     3
 72
    20
 73
    16
 74
     0
 42
0.00000001
 43
0.00000001
 40
0.0
 40
0.0
 40
0.0
 40
0.0
 40
0.065978188728146
 40
0.1291159126370212
 40
0.1894326497518384
 40
0.247973280664001
 40
0.305564732352114
 40
0.3625090993232788
 40
0.4196604919426086
 40
0.4777633428958634
 40
0.5365184847966302
 40
0.5959494836722304
 40
0.6566246065551726
 40
0.7192200657931681
 40
0.7505334203831642
 40
0.7505334203831642
 40
0.7505334203831642
 40
0.7505334203831642
 10
192.7844282428683
 20
213.7221187240833
 30
0.0
 10
192.781862471102
 20
213.593520719096
 30
0.0
 10
192.7768413880803
 20
213.3418610555419
 30
0.0
 10
192.7264441947075
 20
212.9754651427743
 30
0.0
 10
192.6471358335277
 20
212.6294960762392
 30
0.0
 10
192.5372726131166
 20
212.3030030314712
 30
0.0
 10
192.3924300308164
 20
211.9977348668697
 30
0.0
 10
192.2172389811312
 20
211.712016251156
 30
0.0
 10
192.0089630808369
 20
211.4480626648076
 30
0.0
 10
191.769986931963
 20
211.206678867004
 30
0.0
 10
191.5027086484679
 20
210.9899617464215
 30
0.0
 10
191.2094373878603
 20
210.8005429146167
 30
0.0
 10
190.8905348363305
 20
210.6409106977164
 30
0.0
 10
190.6082404570983
 20
210.5347238583537
 30
0.0
 10
190.4330291028241
 20
210.4817080091037
 30
0.0
 10
190.3742555605833
 20
210.4652941350737
 30
0.0
  0
LINE
  5
119
330
1F
100
AcDbEntity
  8
0
  6
Continuous
 62
     7
370
    25
100
AcDbLine
 10
195.3753697215
 20
210.4652941176
 30
0.0
 11
195.3753697215
 21
211.5374078329
 31
0.0
  0
LINE
  5
11A
330
1F
100
AcDbEntity
  8
0
  6
Continuous
 62
     7
370
    25
100
AcDbLine
 10
195.3753697215
 20
211.5374078329
 30
0.0
 11
195.7941641415
 21
211.5374078329
 31
0.0
  0
SPLINE
  5
11B
330
1F
100
AcDbEntity
  8
0
  6
Continuous
 62
     7
370
    25
100
AcDbSpline
210
0.0
220
0.0
230
1.0
 70
     8
 71
     3
 72
    15
 73
    11
 74
     0
 42
0.00000001
 43
0.00000001
 40
0.0
 40
0.0
 40
0.0
 40
0.0
 40
0.1784488430672447
 40
0.3216399918049143
 40
0.4273127117497484
 40
0.5017782720154204
 40
0.5759866102335031
 40
0.6796498124319792
 40
0.8215511569327628
 40
1.0
 40
1.0
 40
1.0
 40
1.0
 10
195.7941641414867
 20
211.5374078329248
 30
0.0
 10
195.8425846430382
 20
211.5379595838173
 30
0.0
 10
195.9298587853333
 20
211.5389540713662
 30
0.0
 10
196.0454634130383
 20
211.5512065627391
 30
0.0
 10
196.1313630960643
 20
211.5678446777109
 30
0.0
 10
196.1961359243241
 20
211.5983824182026
 30
0.0
 10
196.2320993694083
 20
211.659838825135
 30
0.0
 10
196.2531017827857
 20
211.7440109452501
 30
0.0
 10
196.2680031328719
 20
211.8584848402555
 30
0.0
 10
196.2685135135278
 20
211.9454502656345
 30
0.0
 10
196.2687978175211
 20
211.9938937507579
 30
0.0
  0
LINE
  5
11C
330
1F
100
AcDbEntity
  8
0
  6
Continuous
 62
     7
370
    25
100
AcDbLine
 10
196.2687978175
 20
211.9938937508
 30
0.0
 11
196.2687978175
 21
215.46290753
 31
0.0
  0
SPLINE
  5
11D
330
1F
100
AcDbEntity
  8
0
  6
Continuous
 62
     7
370
    25
100
AcDbSpline
210
0.0
220
0.0
230
1.0
 70
     8
 71
     3
 72
    15
 73
    11
 74
     0
 42
0.00000001
 43
0.00000001
 40
0.0
 40
0.0
 40
0.0
 40
0.0
 40
0.1789086894823391
 40
0.3175440960219686
 40
0.4214744288506555
 40
0.4934909729007787
 40
0.5681484241327814
 40
0.6740934530520276
 40
0.8176535923378541
 40
1.0
 40
1.0
 40
1.0
 40
1.0
 10
196.2687978175211
 20
215.4629075300096
 30
0.0
 10
196.2683527016293
 20
215.5113261322064
 30
0.0
 10
196.2675626677641
 20
215.5972640556787
 30
0.0
 10
196.254586469019
 20
215.7110206269626
 30
0.0
 10
196.2335149202162
 20
215.7934674132504
 30
0.0
 10
196.1985271310639
 20
215.8546707713962
 30
0.0
 10
196.1340736910223
 20
215.8847071176574
 30
0.0
 10
196.0482898148874
 20
215.9014334307663
 30
0.0
 10
195.9317102187196
 20
215.91374408734
 30
0.0
 10
195.843511681612
 20
215.9146811898919
 30
0.0
 10
195.7941641414867
 20
215.9152055036424
 30
0.0
  0
LINE
  5
11E
330
1F
100
AcDbEntity
  8
0
  6
Continuous
 62
     7
370
    25
100
AcDbLine
 10
195.7941641415
 20
215.9152055036
 30
0.0
 11
195.3753697215
 21
215.9152055036
 31
0.0
  0
LINE
  5
11F
330
1F
100
AcDbEntity
  8
0
  6
Continuous
 62
     7
370
    25
100
AcDbLine
 10
195.3753697215
 20
215.9152055036
 30
0.0
 11
195.3753697215
 21
216.8652941176
 31
0.0
  0
CIRCLE
  5
120
330
1F
100
AcDbEntity
  8
0
  6
Continuous
 62
     7
370
    25
100
AcDbCircle
 10
103.8411764706
 20
220.4652941176
 30
0.0
 40
1.5
  0
LINE
  5
121
330
1F
100
AcDbEntity
  8
0
  6
Continuous
 62
     7
370
    25
100
AcDbLine
 10
116.7536972678
 20
210.4652941176
 30
0.0
 11
120.7346731803
 21
210.4652941336
 31
0.0
  0
LINE
  5
122
330
1F
100
AcDbEntity
  8
0
  6
Continuous
 62
     7
370
    25
100
AcDbLine
 10
128.278919707
 20
216.8652941176
 30
0.0
 11
126.0453494668
 21
216.8652941176
 31
0.0
  0
LINE
  5
123
330
1F
100
AcDbEntity
  8
0
  6
Continuous
 62
     7
370
    25
100
AcDbLine
 10
122.7396655114
 20
216.8652941176
 30
0.0
 11
122.4716370826
 21
216.8652941176
 31
0.0
  0
LINE
  5
124
330
1F
100
AcDbEntity
  8
0
  6
Continuous
 62
     7
370
    25
100
AcDbLine
 10
123.5392166572
 20
210.4652941364
 30
0.0
 11
129.5297190415
 21
210.4652941176
 31
0.0
  0
LINE
  5
125
330
1F
100
AcDbEntity
  8
0
  6
Continuous
 62
     7
370
    25
100
AcDbLine
 10
139.745952325
 20
216.8652941176
 30
0.0
 11
135.2476588563
 21
216.8652941176
 31
0.0
  0
LINE
  5
126
330
1F
100
AcDbEntity
  8
0
  6
Continuous
 62
     7
370
    25
100
AcDbLine
 10
133.9968595218
 20
210.4652941176
 30
0.0
 11
140.0942777484
 21
210.4652941176
 31
0.0
  0
LINE
  5
127
330
1F
100
AcDbEntity
  8
0
  6
Continuous
 62
     7
370
    25
100
AcDbLine
 10
162.3851488796
 20
216.8652941176
 30
0.0
 11
157.8513896867
 21
216.8652941176
 31
0.0
  0
LINE
  5
128
330
1F
100
AcDbEntity
  8
0
  6
Continuous
 62
     7
370
    25
100
AcDbLine
 10
153.3423697644
 20
210.4652941176
 30
0.0
 11
153.920306064
 21
210.4652941176
 31
0.0
  0
LINE
  5
129
330
1F
100
AcDbEntity
  8
0
  6
Continuous
 62
     7
370
    25
100
AcDbLine
 10
151.2400217759
 20
210.4652941176
 30
0.0
 11
151.7314072287
 21
210.4652941176
 31
0.0
  0
LINE
  5
12A
330
1F
100
AcDbEntity
  8
0
  6
Continuous
 62
     7
370
    25
100
AcDbLine
 10
142.9332235971
 20
210.4652941176
 30
0.0
 11
147.9343378204
 21
210.4652941176
 31
0.0
  0
LINE
  5
12B
330
1F
100
AcDbEntity
  8
0
  6
Continuous
 62
     7
370
    25
100
AcDbLine
 10
147.9343378204
 20
216.8652941176
 30
0.0
 11
143.302536375
 21
216.8652941176
 31
0.0
  0
LINE
  5
12C
330
1F
100
AcDbEntity
  8
0
  6
Continuous
 62
     7
370
    25
100
AcDbLine
 10
153.7337993452
 20
216.8652941176
 30
0.0
 11
151.9099894446
 21
216.8652941176
 31
0.0
  0
LINE
  5
12D
330
1F
100
AcDbEntity
  8
0
  6
Continuous
 62
     7
370
    25
100
AcDbLine
 10
202.3441088708
 20
210.4652941176
 30
0.0
 11
205.8411764706
 21
210.4652941176
 31
0.0
  0
LINE
  5
12E
330
1F
100
AcDbEntity
  8
0
  6
Continuous
 62
     7
370
    25
100
AcDbLine
 10
157.8513896867
 20
210.4652941176
 30
0.0
 11
159.8169314981
 21
210.4652941176
 31
0.0
  0
LINE
  5
12F
330
1F
100
AcDbEntity
  8
0
  6
Continuous
 62
     7
370
    25
100
AcDbLine
 10
169.2872693164
 20
216.8652941176
 30
0.0
 11
164.9938283297
 21
216.8652941176
 31
0.0
  0
LINE
  5
130
330
1F
100
AcDbEntity
  8
0
  6
Continuous
 62
     7
370
    25
100
AcDbLine
 10
167.5004131242
 20
210.4652941176
 30
0.0
 11
170.5380686509
 21
210.4652941176
 31
0.0
  0
LINE
  5
131
330
1F
100
AcDbEntity
  8
0
  6
Continuous
 62
     7
370
    25
100
AcDbLine
 10
187.186984226
 20
216.8652941176
 30
0.0
 11
182.6886907573
 21
216.8652941176
 31
0.0
  0
LINE
  5
132
330
1F
100
AcDbEntity
  8
0
  6
Continuous
 62
     7
370
    25
100
AcDbLine
 10
175.0052091312
 20
210.4652941176
 30
0.0
 11
178.5789215154
 21
210.4652941176
 31
0.0
  0
LINE
  5
133
330
1F
100
AcDbEntity
  8
0
  6
Continuous
 62
     7
370
    25
100
AcDbLine
 10
178.5789215154
 20
216.8652941176
 30
0.0
 11
176.2560084657
 21
216.8652941176
 31
0.0
  0
LINE
  5
134
330
1F
100
AcDbEntity
  8
0
  6
Continuous
 62
     7
370
    25
100
AcDbLine
 10
182.6886907573
 20
210.4652941176
 30
0.0
 11
187.5353096003
 21
210.4652941176
 31
0.0
  0
LINE
  5
135
330
1F
100
AcDbEntity
  8
0
  6
Continuous
 62
     7
370
    25
100
AcDbLine
 10
200.021195821
 20
216.8652941176
 30
0.0
 11
198.9251812618
 21
216.8652941176
 31
0.0
  0
LINE
  5
136
330
1F
100
AcDbEntity
  8
0
  6
Continuous
 62
     7
370
    25
100
AcDbLine
 10
198.5917108673
 20
210.4652941176
 30
0.0
 11
199.9290610486
 21
210.4652941176
 31
0.0
  0
LINE
  5
137
330
1F
100
AcDbEntity
  8
0
  6
Continuous
 62
     7
370
    25
100
AcDbLine
 10
190.3742555655
 20
210.4652941176
 30
0.0
 11
195.3753697215
 21
210.4652941176
 31
0.0
  0
LINE
  5
138
330
1F
100
AcDbEntity
  8
0
  6
Continuous
 62
     7
370
    25
100
AcDbLine
 10
195.3753697215
 20
216.8652941176
 30
0.0
 11
190.743568276
 21
216.8652941176
 31
0.0
  0
LINE
  5
139
330
1F
100
AcDbEntity
  8
0
  6
Continuous
 62
     7
370
    25
100
AcDbLine
 10
205.8411764706
 20
216.8652941176
 30
0.0
 11
203.2375369668
 21
216.8652941176
 31
0.0
  0
ENDSEC
  0
SECTION
  2
OBJECTS
  0
DICTIONARY
  5
C
330
0
100
AcDbDictionary
281
     1
  3
ACAD_GROUP
350
D
  3
ACAD_LAYOUT
350
1A
  3
ACAD_MLINESTYLE
350
17
  3
ACAD_PLOTSETTINGS
350
19
  3
ACAD_PLOTSTYLENAME
350
E
  3
ACAD_SCALELIST
350
47
  3
DWGPROPS
350
13A
  0
DICTIONARY
  5
D
102
{ACAD_REACTORS
330
C
102
}
330
C
100
AcDbDictionary
281
     1
  0
DICTIONARY
  5
1A
102
{ACAD_REACTORS
330
C
102
}
330
C
100
AcDbDictionary
281
     1
  3
Layout1
350
1E
  3
Layout2
350
26
  3
Model
350
22
  0
DICTIONARY
  5
17
102
{ACAD_REACTORS
330
C
102
}
330
C
100
AcDbDictionary
281
     1
  3
Standard
350
18
  0
DICTIONARY
  5
19
102
{ACAD_REACTORS
330
C
102
}
330
C
100
AcDbDictionary
281
     1
  0
ACDBDICTIONARYWDFLT
  5
E
102
{ACAD_REACTORS
330
C
102
}
330
C
100
AcDbDictionary
281
     1
  3
Normal
350
F
100
AcDbDictionaryWithDefault
340
F
  0
DICTIONARY
  5
47
102
{ACAD_REACTORS
330
C
102
}
330
C
100
AcDbDictionary
281
     1
  3
A0
350
48
  3
A1
350
49
  3
A2
350
4A
  3
A3
350
4B
  3
A4
350
4C
  3
A5
350
4D
  3
A6
350
4E
  3
A7
350
4F
  3
A8
350
50
  3
A9
350
51
  3
B0
350
52
  3
B1
350
53
  3
B2
350
54
  3
B3
350
55
  3
B4
350
56
  3
B5
350
57
  3
B6
350
58
  0
XRECORD
  5
13A
102
{ACAD_REACTORS
330
C
102
}
330
C
100
AcDbXrecord
280
     1
  1
DWGPROPS COOKIE
  2

  3

  4

  6

  7

  8
asus
  9

300
=
301
=
302
=
303
=
304
=
305
=
306
=
307
=
308
=
309
=
 40
0.0
 41
2461170.440668461
 42
2461170.440669885
  1

 90
        0
  0
LAYOUT
  5
1E
102
{ACAD_REACTORS
330
1A
102
}
330
1A
100
AcDbPlotSettings
  1

  2
none_device
  4

  6

 40
0.0
 41
0.0
 42
0.0
 43
0.0
 44
0.0
 45
0.0
 46
0.0
 47
0.0
 48
0.0
 49
0.0
140
0.0
141
0.0
142
1.0
143
1.0
 70
   688
 72
     1
 73
     0
 74
     5
  7

 75
    16
147
1.0
148
0.0
149
0.0
100
AcDbLayout
  1
Layout1
 70
     1
 71
     1
 10
0.0
 20
0.0
 11
420.0
 21
297.0
 12
0.0
 22
0.0
 32
0.0
 14
1.0000000000E+20
 24
1.0000000000E+20
 34
1.0000000000E+20
 15
-1.0000000000E+20
 25
-1.0000000000E+20
 35
-1.0000000000E+20
146
0.0
 13
0.0
 23
0.0
 33
0.0
 16
1.0
 26
0.0
 36
0.0
 17
0.0
 27
1.0
 37
0.0
 76
     0
330
1B
  0
LAYOUT
  5
26
102
{ACAD_REACTORS
330
1A
102
}
330
1A
100
AcDbPlotSettings
  1

  2
none_device
  4

  6

 40
0.0
 41
0.0
 42
0.0
 43
0.0
 44
0.0
 45
0.0
 46
0.0
 47
0.0
 48
0.0
 49
0.0
140
0.0
141
0.0
142
1.0
143
1.0
 70
   688
 72
     1
 73
     0
 74
     5
  7

 75
    16
147
1.0
148
0.0
149
0.0
100
AcDbLayout
  1
Layout2
 70
     1
 71
     2
 10
0.0
 20
0.0
 11
0.0
 21
0.0
 12
0.0
 22
0.0
 32
0.0
 14
0.0
 24
0.0
 34
0.0
 15
0.0
 25
0.0
 35
0.0
146
0.0
 13
0.0
 23
0.0
 33
0.0
 16
1.0
 26
0.0
 36
0.0
 17
0.0
 27
1.0
 37
0.0
 76
     0
330
23
  0
LAYOUT
  5
22
102
{ACAD_REACTORS
330
1A
102
}
330
1A
100
AcDbPlotSettings
  1

  2
none_device
  4
Letter_(8.50_x_11.00_Inches)
  6

 40
6.35
 41
6.35
 42
6.35000508
 43
6.35000508
 44
215.9
 45
279.4
 46
0.0
 47
0.0
 48
0.0
 49
0.0
140
0.0
141
0.0
142
1.0
143
1.0
 70
  1712
 72
     1
 73
     0
 74
     0
  7

 75
     0
147
1.0
148
0.0
149
0.0
100
AcDbLayout
  1
Model
 70
     1
 71
     0
 10
0.0
 20
0.0
 11
420.0
 21
297.0
 12
0.0
 22
0.0
 32
0.0
 14
0.0
 24
0.0
 34
0.0
 15
420.0
 25
297.0
 35
0.0
146
0.0
 13
0.0
 23
0.0
 33
0.0
 16
1.0
 26
0.0
 36
0.0
 17
0.0
 27
1.0
 37
0.0
 76
     0
330
1F
331
29
  0
MLINESTYLE
  5
18
102
{ACAD_REACTORS
330
17
102
}
330
17
100
AcDbMlineStyle
  2
Standard
 70
     0
  3

 62
   256
 51
90.0
 52
90.0
 71
     2
 49
0.5
 62
   256
  6
BYLAYER
 49
-0.5
 62
   256
  6
BYLAYER
  0
ACDBPLACEHOLDER
  5
F
102
{ACAD_REACTORS
330
E
102
}
330
E
  0
SCALE
  5
48
102
{ACAD_REACTORS
330
47
102
}
330
47
100
AcDbScale
 70
     0
300
1:1
140
1.0
141
1.0
290
     1
  0
SCALE
  5
49
102
{ACAD_REACTORS
330
47
102
}
330
47
100
AcDbScale
 70
     0
300
1:2
140
1.0
141
2.0
290
     0
  0
SCALE
  5
4A
102
{ACAD_REACTORS
330
47
102
}
330
47
100
AcDbScale
 70
     0
300
1:4
140
1.0
141
4.0
290
     0
  0
SCALE
  5
4B
102
{ACAD_REACTORS
330
47
102
}
330
47
100
AcDbScale
 70
     0
300
1:5
140
1.0
141
5.0
290
     0
  0
SCALE
  5
4C
102
{ACAD_REACTORS
330
47
102
}
330
47
100
AcDbScale
 70
     0
300
1:8
140
1.0
141
8.0
290
     0
  0
SCALE
  5
4D
102
{ACAD_REACTORS
330
47
102
}
330
47
100
AcDbScale
 70
     0
300
1:10
140
1.0
141
10.0
290
     0
  0
SCALE
  5
4E
102
{ACAD_REACTORS
330
47
102
}
330
47
100
AcDbScale
 70
     0
300
1:16
140
1.0
141
16.0
290
     0
  0
SCALE
  5
4F
102
{ACAD_REACTORS
330
47
102
}
330
47
100
AcDbScale
 70
     0
300
1:20
140
1.0
141
20.0
290
     0
  0
SCALE
  5
50
102
{ACAD_REACTORS
330
47
102
}
330
47
100
AcDbScale
 70
     0
300
1:30
140
1.0
141
30.0
290
     0
  0
SCALE
  5
51
102
{ACAD_REACTORS
330
47
102
}
330
47
100
AcDbScale
 70
     0
300
1:40
140
1.0
141
40.0
290
     0
  0
SCALE
  5
52
102
{ACAD_REACTORS
330
47
102
}
330
47
100
AcDbScale
 70
     0
300
1:50
140
1.0
141
50.0
290
     0
  0
SCALE
  5
53
102
{ACAD_REACTORS
330
47
102
}
330
47
100
AcDbScale
 70
     0
300
1:100
140
1.0
141
100.0
290
     0
  0
SCALE
  5
54
102
{ACAD_REACTORS
330
47
102
}
330
47
100
AcDbScale
 70
     0
300
2:1
140
2.0
141
1.0
290
     0
  0
SCALE
  5
55
102
{ACAD_REACTORS
330
47
102
}
330
47
100
AcDbScale
 70
     0
300
4:1
140
4.0
141
1.0
290
     0
  0
SCALE
  5
56
102
{ACAD_REACTORS
330
47
102
}
330
47
100
AcDbScale
 70
     0
300
8:1
140
8.0
141
1.0
290
     0
  0
SCALE
  5
57
102
{ACAD_REACTORS
330
47
102
}
330
47
100
AcDbScale
 70
     0
300
10:1
140
10.0
141
1.0
290
     0
  0
SCALE
  5
58
102
{ACAD_REACTORS
330
47
102
}
330
47
100
AcDbScale
 70
     0
300
100:1
140
100.0
141
1.0
290
     0
  0
ENDSEC
  0
EOF
